<svg width="21" height="21" viewBox="0 0 21 21" fill="none" xmlns="http://www.w3.org/2000/svg">
<path d="M10.5 0.0833282C8.43976 0.0833282 6.42581 0.694255 4.71279 1.83885C2.99978 2.98345 1.66465 4.61031 0.876239 6.51371C0.0878264 8.41711 -0.118458 10.5115 0.283471 12.5322C0.6854 14.5528 1.67749 16.4089 3.13429 17.8657C4.59109 19.3225 6.44716 20.3146 8.46779 20.7165C10.4884 21.1184 12.5829 20.9122 14.4863 20.1237C16.3897 19.3353 18.0165 18.0002 19.1611 16.2872C20.3057 14.5742 20.9167 12.5602 20.9167 10.5C20.9167 9.13206 20.6472 7.77752 20.1237 6.51371C19.6002 5.2499 18.833 4.10158 17.8657 3.1343C16.8984 2.16702 15.7501 1.39974 14.4863 0.87625C13.2225 0.352763 11.8679 0.0833282 10.5 0.0833282ZM10.5 18.8333C8.85181 18.8333 7.24064 18.3446 5.87023 17.4289C4.49982 16.5132 3.43172 15.2117 2.80099 13.689C2.17026 12.1663 2.00523 10.4908 2.32677 8.87424C2.64832 7.25773 3.44199 5.77288 4.60743 4.60744C5.77287 3.442 7.25772 2.64833 8.87423 2.32678C10.4907 2.00524 12.1663 2.17027 13.689 2.801C15.2117 3.43173 16.5132 4.49983 17.4289 5.87024C18.3446 7.24065 18.8333 8.85182 18.8333 10.5C18.8333 12.7101 17.9553 14.8297 16.3925 16.3926C14.8297 17.9554 12.7101 18.8333 10.5 18.8333ZM14.6667 11.875C14.5942 12.0906 14.4531 12.2766 14.265 12.4045C14.0769 12.5324 13.8521 12.5952 13.625 12.5833C13.5121 12.5805 13.4 12.563 13.2917 12.5312L10.1667 11.4896C9.95976 11.4197 9.78005 11.2866 9.65295 11.109C9.52584 10.9314 9.45776 10.7184 9.45832 10.5V5.29166C9.45832 5.01539 9.56807 4.75044 9.76342 4.55509C9.95877 4.35974 10.2237 4.24999 10.5 4.24999C10.7763 4.24999 11.0412 4.35974 11.2366 4.55509C11.4319 4.75044 11.5417 5.01539 11.5417 5.29166V9.74999L13.9583 10.5521C14.0932 10.5901 14.2189 10.655 14.3281 10.7427C14.4373 10.8305 14.5277 10.9394 14.5938 11.0629C14.6599 11.1864 14.7005 11.322 14.713 11.4615C14.7255 11.6011 14.7097 11.7417 14.6667 11.875Z" fill="#939393"/>
</svg>
