<svg width="50" height="50" viewBox="0 0 50 50" fill="none" xmlns="http://www.w3.org/2000/svg">
<path fill-rule="evenodd" clip-rule="evenodd" d="M18.0969 10.3687L10.3625 18.1031C9.77665 18.6891 9.44754 19.4838 9.44754 20.3125C9.44754 21.1411 9.77665 21.9358 10.3625 22.5219L18.0969 30.2562C18.3871 30.5468 18.7318 30.7773 19.1111 30.9345C19.4905 31.0918 19.8971 31.1728 20.3078 31.1728C20.7185 31.1728 21.1251 31.0918 21.5045 30.9345C21.8839 30.7773 22.2285 30.5468 22.5187 30.2562L30.25 22.5219C30.8358 21.9358 31.165 21.1411 31.165 20.3125C31.165 19.4838 30.8358 18.6891 30.25 18.1031L22.5187 10.3687C22.2285 10.0782 21.8839 9.84768 21.5045 9.69042C21.1251 9.53316 20.7185 9.45221 20.3078 9.45221C19.8971 9.45221 19.4905 9.53316 19.1111 9.69042C18.7318 9.84768 18.3871 10.0782 18.0969 10.3687ZM20.3062 25.8375L14.7844 20.3125L20.3062 14.7875L25.8312 20.3125L20.3062 25.8375Z" fill="#896CFE"/>
<path fill-rule="evenodd" clip-rule="evenodd" d="M2.90247e-06 20.3125C-0.00245322 15.7163 1.55397 11.2551 4.41497 7.65784C7.27597 4.0606 11.2724 1.54001 15.7512 0.507903C20.2301 -0.524201 24.9266 -0.00679494 29.0734 1.97558C33.2201 3.95796 36.572 7.2881 38.5813 11.4219C41.4899 12.8398 44.0176 14.9321 45.9541 17.5245C47.8905 20.117 49.1796 23.1345 49.7139 26.3259C50.2483 29.5173 50.0125 32.7902 49.0262 35.872C48.0398 38.9538 46.3315 41.7554 44.0434 44.0435C41.7554 46.3315 38.9538 48.0398 35.872 49.0262C32.7901 50.0125 29.5173 50.2483 26.3259 49.714C23.1345 49.1796 20.117 47.8905 17.5245 45.9541C14.9321 44.0176 12.8398 41.4899 11.4219 38.5813C7.99638 36.9137 5.10889 34.3164 3.08919 31.086C1.0695 27.8556 -0.000986804 24.1223 2.90247e-06 20.3125ZM20.3125 4.68751C16.1685 4.68751 12.1942 6.33371 9.26396 9.26397C6.3337 12.1942 4.6875 16.1685 4.6875 20.3125C4.6875 24.4565 6.3337 28.4308 9.26396 31.3611C12.1942 34.2913 16.1685 35.9375 20.3125 35.9375C24.4565 35.9375 28.4308 34.2913 31.361 31.3611C34.2913 28.4308 35.9375 24.4565 35.9375 20.3125C35.9375 16.1685 34.2913 12.1942 31.361 9.26397C28.4308 6.33371 24.4565 4.68751 20.3125 4.68751ZM40.625 20.3125C40.625 19.6844 40.5938 19.0625 40.5406 18.4469C42.033 19.8882 43.2233 21.6124 44.0422 23.5187C44.8611 25.425 45.2921 27.4753 45.3102 29.55C45.3282 31.6247 44.9329 33.6822 44.1472 35.6024C43.3616 37.5227 42.2014 39.2672 40.7343 40.7343C39.2672 42.2014 37.5227 43.3616 35.6024 44.1472C33.6822 44.9329 31.6247 45.3282 29.55 45.3102C27.4753 45.2921 25.425 44.8611 23.5187 44.0422C21.6124 43.2233 19.8882 42.033 18.4469 40.5406C21.2598 40.8001 24.096 40.47 26.7741 39.5713C29.4523 38.6727 31.9135 37.2253 34.0007 35.3217C36.0878 33.4181 37.755 31.1 38.8956 28.5156C40.0362 25.9313 40.6252 23.1374 40.625 20.3125Z" fill="#896CFE"/>
</svg>
