<svg width="21" height="19" viewBox="0 0 21 19" fill="none" xmlns="http://www.w3.org/2000/svg">
<path fill-rule="evenodd" clip-rule="evenodd" d="M8.18523 18.875H12.8148C16.066 18.875 17.6915 18.875 18.8592 18.109C19.3646 17.7773 19.7987 17.3511 20.1365 16.8549C20.9167 15.7084 20.9167 14.1124 20.9167 10.9204C20.9167 7.72854 20.9167 6.13251 20.1365 4.98604C19.7987 4.48973 19.3646 4.06358 18.8592 3.73196C18.1088 3.23972 17.1695 3.06378 15.7313 3.0009C15.0449 3.0009 14.4541 2.49029 14.3195 1.82954C14.1175 0.838427 13.2312 0.125 12.2018 0.125H8.79827C7.76884 0.125 6.88249 0.838427 6.68059 1.82954C6.546 2.49029 5.95509 3.0009 5.26879 3.0009C3.83059 3.06378 2.89124 3.23972 2.14092 3.73196C1.63541 4.06358 1.20137 4.48973 0.863603 4.98604C0.0833741 6.13251 0.083374 7.72854 0.083374 10.9204C0.083374 14.1124 0.0833741 15.7084 0.863603 16.8549C1.20137 17.3511 1.63541 17.7773 2.14092 18.109C3.30862 18.875 4.93415 18.875 8.18523 18.875ZM10.5 6.65909C8.10297 6.65909 6.15976 8.56698 6.15976 10.9204C6.15976 13.274 8.10297 15.1818 10.5 15.1818C12.8971 15.1818 14.8404 13.274 14.8404 10.9204C14.8404 8.56698 12.8971 6.65909 10.5 6.65909ZM10.5 8.36365C9.06181 8.36365 7.89587 9.50833 7.89587 10.9204C7.89587 12.3325 9.06181 13.4773 10.5 13.4773C11.9383 13.4773 13.1042 12.3325 13.1042 10.9204C13.1042 9.50833 11.9383 8.36365 10.5 8.36365ZM15.419 7.51135C15.419 7.04067 15.8076 6.65909 16.2871 6.65909H17.4445C17.9239 6.65909 18.3125 7.04067 18.3125 7.51135C18.3125 7.98208 17.9239 8.36365 17.4445 8.36365H16.2871C15.8076 8.36365 15.419 7.98208 15.419 7.51135Z" fill="url(#paint0_linear_25_325)"/>
<defs>
<linearGradient id="paint0_linear_25_325" x1="0.0833739" y1="9.5" x2="20.9167" y2="9.5" gradientUnits="userSpaceOnUse">
<stop stop-color="#64FF54"/>
<stop offset="1" stop-color="#00DD89"/>
</linearGradient>
</defs>
</svg>
