<svg width="25" height="25" viewBox="0 0 25 25" fill="none" xmlns="http://www.w3.org/2000/svg">
<path d="M22.9167 13.6991V11.3009C22.9167 10.0236 22.9167 9.38494 22.6788 8.81066C22.441 8.23636 21.9893 7.78476 21.0861 6.88154L20.1547 5.95015L5.95007 20.1546L6.88158 21.086C7.7848 21.9893 8.23641 22.4409 8.8107 22.6787C9.38498 22.9167 10.0237 22.9167 11.301 22.9167H13.6991C14.9764 22.9167 15.6151 22.9167 16.1894 22.6787C16.7637 22.4409 17.2152 21.9893 18.1185 21.086L21.0861 18.1184C21.9893 17.2152 22.441 16.7636 22.6788 16.1894C22.9167 15.6151 22.9167 14.9764 22.9167 13.6991Z" fill="#FE3B30"/>
<path d="M4.84522 19.0497L3.91396 18.1184C3.01074 17.2152 2.55912 16.7636 2.32125 16.1894C2.08337 15.6151 2.08337 14.9764 2.08337 13.6991V11.3009C2.08337 10.0236 2.08337 9.38494 2.32125 8.81066C2.55912 8.23636 3.01074 7.78476 3.91396 6.88154L6.88158 3.91392C7.7848 3.0107 8.2364 2.55908 8.8107 2.32121C9.38498 2.08333 10.0237 2.08333 11.301 2.08333H13.6991C14.9764 2.08333 15.6151 2.08333 16.1894 2.32121C16.7637 2.55908 17.2152 3.0107 18.1185 3.91392L19.0498 4.84529L4.84522 19.0497Z" fill="#FE3B30"/>
</svg>
