<svg width="315" height="315" viewBox="0 0 315 315" fill="none" xmlns="http://www.w3.org/2000/svg">
<path d="M3 262L3 297C3 305.284 9.72662 312 18.0109 312C40.7156 312 50.7224 312 53 312" stroke="#896CFE" stroke-width="6" stroke-linecap="round"/>
<path d="M312 53V18C312 9.71573 305.273 3 296.989 3C274.284 3 264.278 3 262 3" stroke="#896CFE" stroke-width="6" stroke-linecap="round"/>
<path d="M53 3H18C9.71573 3 3 9.72662 3 18.0109C3 40.7156 3 50.7224 3 53" stroke="#896CFE" stroke-width="6" stroke-linecap="round"/>
<path d="M262 312H297C305.284 312 312 305.273 312 296.989C312 274.284 312 264.278 312 262" stroke="#896CFE" stroke-width="6" stroke-linecap="round"/>
<g clip-path="url(#clip0_80_2561)" filter="url(#filter0_d_80_2561)">
<path d="M157.747 199.58H157.248V211.191H157.747V199.58Z" fill="#896CFE"/>
<path d="M157.747 63.041H157.248V178.606H157.747V63.041Z" fill="#896CFE"/>
<path d="M167.284 222.742H157.503V222.245H167.219L191.929 208.048L202.603 190.107L215.632 121.826L209.132 86.7149L195.062 72.4489L179.634 63.2946H157.508V62.7974H179.704C179.749 62.7974 179.794 62.8073 179.834 62.8322L195.351 72.0362C195.351 72.0362 195.386 72.0611 195.401 72.076L209.546 86.4216C209.581 86.4564 209.606 86.5011 209.616 86.5508L216.135 121.786C216.14 121.816 216.14 121.845 216.135 121.875L203.092 190.247C203.087 190.277 203.077 190.301 203.062 190.326L192.333 208.361C192.313 208.396 192.278 208.431 192.243 208.451L167.419 222.712C167.379 222.732 167.339 222.747 167.294 222.747L167.284 222.742Z" fill="#896CFE"/>
<path d="M188.109 146.927H188.099L177.474 146.405C177.439 146.405 177.409 146.395 177.38 146.38L170.436 143.128C170.352 143.088 170.297 143.004 170.292 142.909C170.292 142.815 170.342 142.725 170.426 142.685L177.684 139.016C177.719 138.996 177.759 138.991 177.799 138.991H188.737C188.797 138.991 188.852 139.011 188.897 139.05L193.944 143.247C194.009 143.297 194.039 143.376 194.034 143.461C194.029 143.541 193.979 143.615 193.909 143.655L188.228 146.907C188.188 146.927 188.148 146.942 188.104 146.942L188.109 146.927ZM177.544 145.907L188.044 146.425L193.351 143.386L188.647 139.478H177.858L171.11 142.889L177.544 145.902V145.907Z" fill="#896CFE"/>
<path d="M168.441 168.845C168.391 168.845 168.341 168.83 168.301 168.805L162.515 164.927C162.451 164.882 162.406 164.807 162.406 164.728L161.882 141.869C161.882 141.81 161.902 141.755 161.937 141.705L171.613 129.856C171.648 129.811 171.698 129.781 171.753 129.771L192.578 125.053C192.647 125.038 192.722 125.053 192.782 125.097L203.79 133.426L206.369 108.425L202.828 92.115L182.706 81.7225L173.833 83.3336C173.833 83.3336 173.788 83.3386 173.763 83.3336L157.473 81.7076L157.523 81.2104L173.778 82.8314L182.696 81.2104C182.751 81.2004 182.806 81.2104 182.856 81.2352L203.157 91.7221C203.222 91.757 203.272 91.8166 203.287 91.8912L206.863 108.355C206.868 108.38 206.868 108.405 206.863 108.435L204.234 133.914C204.224 134.003 204.169 134.083 204.085 134.117C204 134.152 203.905 134.142 203.835 134.088L192.568 125.56L171.938 130.234L162.371 141.944L162.89 164.584L168.252 168.179L170.282 156.653L167.034 143.018C167.01 142.919 167.054 142.809 167.139 142.755L177.339 136.096C177.414 136.047 177.504 136.042 177.584 136.082C177.664 136.116 177.714 136.196 177.724 136.28L178.038 139.214L177.544 139.269L177.27 136.738L167.553 143.078L170.775 156.593C170.785 156.628 170.785 156.658 170.775 156.692L168.67 168.646C168.656 168.731 168.601 168.8 168.521 168.83C168.491 168.845 168.456 168.85 168.421 168.85L168.441 168.845Z" fill="#896CFE"/>
<path d="M182.891 81.6529L182.592 81.2551L194.658 72.3445L170.501 65.03H157.493V64.5327H170.536C170.536 64.5327 170.586 64.5327 170.611 64.5427L195.281 72.0113C195.371 72.0411 195.441 72.1157 195.456 72.2052C195.471 72.2997 195.436 72.3942 195.361 72.4489L182.896 81.6529H182.891Z" fill="#896CFE"/>
<path d="M182.747 81.7026C182.722 81.7026 182.697 81.7026 182.672 81.6927L157.428 73.5129C157.338 73.4831 157.268 73.4036 157.258 73.3091C157.248 73.2146 157.288 73.1201 157.368 73.0704L170.411 64.5774C170.436 64.5575 170.471 64.5476 170.501 64.5426L179.654 62.8022L179.749 63.2895L170.985 64.9553L182.956 81.3098C183.021 81.3993 183.021 81.5136 182.956 81.6032C182.906 81.6678 182.831 81.7076 182.752 81.7076L182.747 81.7026ZM158.076 73.1997L182.093 80.9816L170.486 65.1194L158.076 73.1997Z" fill="#896CFE"/>
<path d="M188.986 139.279L188.498 139.189L189.026 136.251C189.031 136.221 189.046 136.186 189.061 136.161L193.515 129.289L192.388 125.361C192.378 125.331 192.378 125.301 192.378 125.271L193.79 107.893L192.109 94.3824L192.603 94.3228L194.289 107.858C194.289 107.858 194.289 107.893 194.289 107.908L192.877 125.266L194.019 129.259C194.039 129.329 194.029 129.404 193.989 129.463L189.5 136.39L188.981 139.279H188.986Z" fill="#896CFE"/>
<path d="M193.79 143.675C193.705 143.675 193.625 143.635 193.58 143.56L189.131 136.544H177.589L170.721 143.083C170.676 143.128 170.616 143.153 170.551 143.153L167.289 143.207C167.214 143.207 167.109 143.157 167.064 143.073C167.02 142.988 167.029 142.889 167.084 142.814L174.501 132.641C174.541 132.591 174.596 132.556 174.656 132.541L193.75 129.08C193.839 129.066 193.924 129.095 193.984 129.16L203.611 140.119C203.666 140.184 203.686 140.268 203.666 140.348C203.646 140.428 203.581 140.492 203.501 140.517L193.874 143.665C193.849 143.675 193.825 143.675 193.795 143.675H193.79ZM177.484 136.047H189.266C189.35 136.047 189.43 136.092 189.475 136.161L193.894 143.128L202.977 140.159L193.695 129.593L174.841 133.009L167.778 142.695L170.441 142.65L177.315 136.112C177.359 136.067 177.424 136.042 177.489 136.042L177.484 136.047Z" fill="#896CFE"/>
<path d="M167.284 143.207C167.284 143.207 167.249 143.207 167.234 143.202L162.107 142.108H157.503V141.611H162.131C162.131 141.611 162.166 141.611 162.181 141.616L167.119 142.67L171.569 129.926C171.598 129.846 171.663 129.787 171.748 129.767C171.828 129.747 171.918 129.767 171.978 129.831L174.871 132.611L174.526 132.969L171.913 130.458L167.518 143.043C167.483 143.143 167.389 143.212 167.284 143.212V143.207Z" fill="#896CFE"/>
<path d="M177.237 146.139L177.026 151.411L177.524 151.431L177.736 146.159L177.237 146.139Z" fill="#896CFE"/>
<path d="M188.257 146.47L187.959 146.869L194.347 151.613L194.645 151.214L188.257 146.47Z" fill="#896CFE"/>
<path d="M186.443 189.856L185.103 202.44L185.599 202.492L186.939 189.908L186.443 189.856Z" fill="#896CFE"/>
<path d="M162.6 178.86H157.498V178.363H162.6C162.865 178.303 166.96 176.766 169.943 175.638L164.336 172.654L160.77 174.484C160.735 174.504 160.695 174.514 160.655 174.514H157.498V174.017H160.595L164.222 172.157C164.296 172.117 164.381 172.122 164.451 172.157L170.656 175.459C170.741 175.503 170.796 175.598 170.786 175.692C170.781 175.792 170.716 175.876 170.626 175.911C165.468 177.87 162.765 178.865 162.595 178.865L162.6 178.86Z" fill="#896CFE"/>
<path d="M162.421 178.78L160.949 177.209C160.914 177.174 160.894 177.129 160.884 177.079L160.411 174.3L160.904 174.215L161.363 176.92L162.785 178.437L162.421 178.775V178.78Z" fill="#896CFE"/>
<path d="M164.582 172.369L164.084 172.376L164.136 175.678L164.635 175.67L164.582 172.369Z" fill="#896CFE"/>
<path d="M161.129 177.283H157.498V176.786H161.074L164.286 175.444C164.316 175.429 164.351 175.424 164.381 175.424H170.202L168.192 168.666L162.351 142.009L162.84 141.904L168.676 168.542L170.776 175.603C170.796 175.677 170.786 175.757 170.736 175.822C170.691 175.886 170.616 175.921 170.536 175.921H164.431L161.219 177.264C161.189 177.278 161.154 177.283 161.124 177.283H161.129Z" fill="#896CFE"/>
<path d="M192.109 208.481C192.049 208.481 191.994 208.461 191.944 208.421L185.186 202.653C185.151 202.623 185.126 202.588 185.111 202.548L178.113 182.788L170.376 175.856L170.711 175.488L178.497 182.46C178.527 182.49 178.552 182.524 178.567 182.559L185.565 202.315L191.635 207.496L186.457 189.948C186.437 189.879 186.447 189.804 186.487 189.739L202.174 165.996L203.142 141.024L194.702 151.576C194.658 151.635 194.583 151.67 194.508 151.67H177.285C177.225 151.67 177.17 151.65 177.125 151.61L167.134 143.142L167.458 142.764L177.379 151.173H194.393L203.232 140.124C203.297 140.04 203.411 140.01 203.511 140.045C203.611 140.084 203.676 140.179 203.676 140.288L202.678 166.085C202.678 166.13 202.663 166.175 202.638 166.215L186.976 189.923L192.358 208.162C192.388 208.267 192.348 208.381 192.253 208.441C192.213 208.466 192.164 208.481 192.119 208.481H192.109Z" fill="#896CFE"/>
<path d="M157.528 203.08L157.473 202.588L167.174 201.494L173.768 195.602L168.022 198.546C167.997 198.56 167.967 198.57 167.937 198.57L157.523 199.828L157.463 199.336L167.833 198.083L175.26 194.274C175.369 194.215 175.509 194.249 175.579 194.354C175.649 194.458 175.634 194.597 175.539 194.682L167.439 201.917C167.399 201.952 167.354 201.972 167.299 201.977L157.518 203.075L157.528 203.08Z" fill="#896CFE"/>
<path d="M167.667 198.271L167.035 201.679L167.526 201.769L168.157 198.361L167.667 198.271Z" fill="#896CFE"/>
<path d="M182.956 195.557L175.369 194.747H157.503V194.249H174.277L168.122 191.336L160.69 191.181L157.567 191.962C157.453 191.987 157.338 191.937 157.283 191.833C157.233 191.728 157.258 191.604 157.348 191.529L160.031 189.381C160.076 189.347 160.131 189.327 160.186 189.327H167.284C167.329 189.327 167.374 189.342 167.414 189.361L175.464 194.259L183.006 195.065L182.951 195.557H182.956ZM160.655 190.684H160.66L168.182 190.843C168.217 190.843 168.252 190.853 168.281 190.868L171.199 192.25L167.209 189.824H160.266L158.54 191.211L160.595 190.699C160.595 190.699 160.635 190.694 160.655 190.694V190.684Z" fill="#896CFE"/>
<path d="M160.047 178.594L159.549 178.612L159.944 189.57L160.443 189.552L160.047 178.594Z" fill="#896CFE"/>
<path d="M202.817 189.955L199.137 190.163L199.165 190.66L202.845 190.451L202.817 189.955Z" fill="#896CFE"/>
<path d="M205.796 175.245L205.676 174.762L208.529 174.041L216.904 158.343L218.993 141.472L216.275 135.649L213.183 136.609L213.033 136.136L216.335 135.112C216.455 135.077 216.584 135.132 216.634 135.246L219.472 141.328C219.492 141.367 219.497 141.417 219.492 141.462L217.387 158.448C217.387 158.478 217.372 158.507 217.362 158.532L208.913 174.365C208.878 174.424 208.823 174.474 208.753 174.489L205.796 175.235V175.245Z" fill="#896CFE"/>
<path d="M210.28 167.796C210.28 167.796 210.26 167.796 210.255 167.796L207.197 167.468C207.087 167.458 206.998 167.373 206.978 167.264C206.958 167.154 207.013 167.045 207.112 166.995L210.305 165.409L211.676 159.532L209.307 155.3C209.267 155.23 209.267 155.146 209.297 155.076L215.662 141.019C215.707 140.915 215.816 140.855 215.931 140.875C216.046 140.895 216.13 140.989 216.135 141.104L217.397 158.408L216.899 158.443L215.891 144.654L214.869 159.517C214.869 159.551 214.854 159.586 214.839 159.616L210.499 167.667C210.454 167.746 210.369 167.796 210.28 167.796ZM208.095 167.065L210.14 167.284L214.375 159.427L215.537 142.486L209.796 155.166L212.15 159.372C212.18 159.427 212.19 159.492 212.175 159.551L210.754 165.638C210.739 165.712 210.689 165.772 210.624 165.802L208.09 167.065H208.095Z" fill="#896CFE"/>
<path d="M219.223 141.686L215.856 141.373C215.722 141.358 215.617 141.238 215.632 141.104L216.156 135.336L216.654 135.381L216.151 140.9L219.268 141.194L219.223 141.691V141.686Z" fill="#896CFE"/>
<path d="M167.528 222.543L167.039 222.439L168.516 215.398L165.199 211.44H157.508V210.942H165.319C165.393 210.942 165.463 210.977 165.508 211.032L168.98 215.174C169.03 215.234 169.05 215.308 169.035 215.383L167.538 222.538L167.528 222.543Z" fill="#896CFE"/>
<path d="M168.78 215.587C168.72 215.587 168.661 215.567 168.616 215.522C168.541 215.457 168.516 215.353 168.546 215.263L175.145 194.424L175.619 194.573L169.184 214.891L182.781 208.889L185.111 202.385L185.579 202.554L183.215 209.162C183.19 209.227 183.145 209.277 183.081 209.306L168.88 215.572C168.85 215.587 168.815 215.592 168.78 215.592V215.587Z" fill="#896CFE"/>
<path d="M171.904 204.744L165.134 211.024L165.474 211.388L172.244 205.108L171.904 204.744Z" fill="#896CFE"/>
<path d="M215.781 122.054L211.153 120.06C211.093 120.036 211.043 119.986 211.018 119.926L206.389 108.495L206.853 108.311L211.442 119.648L215.976 121.602L215.776 122.059L215.781 122.054Z" fill="#896CFE"/>
<path d="M209.766 155.205L209.272 155.151L211.362 136.454L211.003 119.841L209.137 87.1075L203.207 92.1297L202.883 91.7518L209.192 86.4064C209.267 86.3467 209.367 86.3318 209.452 86.3666C209.536 86.4014 209.596 86.486 209.601 86.5805L211.497 119.821L211.856 136.479L209.761 155.21L209.766 155.205Z" fill="#896CFE"/>
<path d="M183.006 209.321L182.961 208.824L191.934 207.998L198.927 190.316L204.154 171.545L202.289 166.463L186.826 176.647C186.757 176.692 186.667 176.702 186.592 176.667L168.341 168.83L168.541 168.373L186.667 176.16L202.279 165.876C202.344 165.837 202.424 165.822 202.493 165.847C202.568 165.871 202.623 165.926 202.648 165.996L204.648 171.451C204.668 171.5 204.668 171.555 204.653 171.605L199.396 190.48L192.338 208.331C192.303 208.421 192.223 208.481 192.129 208.486L183.006 209.326V209.321Z" fill="#896CFE"/>
<path d="M204.648 171.615L204.179 171.451L208.439 159.467L206.898 141.144L206.374 108.644L194.034 108.126L175.753 103.78L157.523 105.819L157.468 105.327L175.743 103.283C175.773 103.283 175.803 103.283 175.828 103.288L194.099 107.639L206.629 108.156C206.758 108.161 206.868 108.271 206.868 108.4L207.392 141.119L208.933 159.477C208.933 159.512 208.933 159.547 208.918 159.581L204.638 171.615H204.648Z" fill="#896CFE"/>
<path d="M172.052 130.045L171.559 129.97L175.524 103.522L173.544 83.1049L174.043 83.0552L176.028 103.502C176.028 103.502 176.028 103.542 176.028 103.562L172.057 130.04L172.052 130.045Z" fill="#896CFE"/>
<path d="M206.449 108.584L192.184 94.5265L182.547 81.603L182.946 81.3047L192.563 94.1983L206.798 108.226L206.449 108.584Z" fill="#896CFE"/>
<path d="M186.941 189.884H186.442V176.93L178.477 182.848L167.414 189.779L167.149 189.356L178.192 182.435L186.537 176.234C186.612 176.179 186.712 176.169 186.797 176.209C186.881 176.249 186.936 176.339 186.936 176.433V189.884H186.941Z" fill="#896CFE"/>
<path d="M202.414 166.329C202.414 166.329 202.374 166.329 202.354 166.324L192.149 163.808L170.466 156.882L170.616 156.409L192.283 163.331L202.329 165.807L208.509 159.328L208.868 159.671L202.588 166.255C202.539 166.304 202.474 166.334 202.409 166.334L202.414 166.329Z" fill="#896CFE"/>
<path d="M186.921 176.533L186.462 176.339L191.974 163.49L194.258 151.377L194.747 151.466L192.458 163.604C192.458 163.604 192.448 163.639 192.443 163.654L186.921 176.528V176.533Z" fill="#896CFE"/>
<path d="M181.834 146.404C179.44 146.404 177.489 144.46 177.489 142.073C177.489 140.94 177.923 139.866 178.716 139.06L179.07 139.408C178.372 140.124 177.988 141.069 177.988 142.073C177.988 144.187 179.714 145.907 181.834 145.907C183.954 145.907 185.679 144.187 185.679 142.073C185.679 141.069 185.295 140.119 184.592 139.408L184.946 139.06C185.739 139.871 186.173 140.94 186.173 142.073C186.173 144.46 184.223 146.404 181.829 146.404H181.834Z" fill="#896CFE"/>
<path d="M183.569 142.068C183.569 143.023 182.791 143.799 181.834 143.799C180.876 143.799 180.098 143.023 180.098 142.068C180.098 141.114 180.876 140.338 181.834 140.338C182.791 140.338 183.569 141.114 183.569 142.068Z" fill="#896CFE"/>
<path d="M181.834 144.047C180.736 144.047 179.848 143.157 179.848 142.068C179.848 140.979 180.741 140.089 181.834 140.089C182.926 140.089 183.819 140.979 183.819 142.068C183.819 143.157 182.926 144.047 181.834 144.047ZM181.834 140.587C181.016 140.587 180.347 141.253 180.347 142.068C180.347 142.884 181.016 143.55 181.834 143.55C182.652 143.55 183.32 142.884 183.32 142.068C183.32 141.253 182.652 140.587 181.834 140.587Z" fill="#896CFE"/>
<path d="M207.147 141.372C207.147 141.372 207.112 141.372 207.092 141.367L203.356 140.527C203.237 140.497 203.152 140.388 203.162 140.263L203.741 133.869L204.239 133.913L203.681 140.094L207.062 140.855L211.427 136.315L211.786 136.658L207.327 141.298C207.277 141.347 207.212 141.372 207.147 141.372Z" fill="#896CFE"/>
<path d="M157.498 222.742H147.716C147.671 222.742 147.632 222.732 147.592 222.707L122.767 208.446C122.732 208.426 122.697 208.396 122.677 208.357L111.948 190.321C111.948 190.321 111.923 190.272 111.918 190.242L98.8748 121.87C98.8698 121.841 98.8698 121.811 98.8748 121.781L105.394 86.546C105.404 86.4962 105.429 86.4515 105.464 86.4167L119.61 72.0711C119.61 72.0711 119.639 72.0413 119.659 72.0313L135.177 62.8273C135.217 62.8024 135.262 62.7925 135.306 62.7925H157.503V63.2897H135.376L119.949 72.444L105.878 86.7101L99.3786 121.821L112.407 190.103L123.081 208.043L147.791 222.24H157.508V222.737L157.498 222.742Z" fill="#896CFE"/>
<path d="M126.892 146.927C126.847 146.927 126.807 146.917 126.767 146.892L121.086 143.64C121.016 143.6 120.966 143.525 120.961 143.446C120.956 143.366 120.986 143.287 121.051 143.232L126.099 139.035C126.144 139 126.199 138.976 126.258 138.976H137.197C137.237 138.976 137.277 138.986 137.312 139L144.569 142.67C144.654 142.715 144.709 142.799 144.704 142.894C144.704 142.988 144.649 143.073 144.559 143.113L137.616 146.365C137.586 146.38 137.556 146.385 137.521 146.39L126.897 146.912H126.887L126.892 146.927ZM121.645 143.391L126.952 146.429L137.451 145.912L143.886 142.899L137.137 139.488H126.348L121.645 143.396V143.391Z" fill="#896CFE"/>
<path d="M146.559 168.845C146.524 168.845 146.494 168.84 146.459 168.825C146.38 168.791 146.325 168.721 146.31 168.641L144.205 156.688C144.2 156.653 144.205 156.618 144.205 156.588L147.427 143.073L137.711 136.733L137.436 139.264L136.943 139.209L137.257 136.276C137.267 136.191 137.322 136.116 137.396 136.077C137.476 136.042 137.566 136.047 137.641 136.092L147.841 142.75C147.931 142.809 147.971 142.914 147.946 143.013L144.699 156.648L146.729 168.174L152.091 164.579L152.61 141.939L143.043 130.229L122.413 125.555L111.145 134.083C111.07 134.137 110.98 134.147 110.896 134.113C110.811 134.078 110.756 133.998 110.746 133.909L108.117 108.43C108.117 108.405 108.117 108.375 108.117 108.35L111.694 91.8863C111.709 91.8117 111.759 91.7521 111.823 91.7173L132.124 81.2303C132.174 81.2055 132.229 81.1955 132.284 81.2055L141.202 82.8265L157.458 81.2055L157.508 81.7027L141.217 83.3287C141.217 83.3287 141.172 83.3287 141.147 83.3287L132.274 81.7176L112.153 92.1101L108.611 108.42L111.19 133.421L122.198 125.092C122.258 125.048 122.333 125.033 122.403 125.048L143.227 129.767C143.282 129.777 143.332 129.811 143.367 129.851L153.043 141.701C153.083 141.745 153.103 141.805 153.098 141.865L152.575 164.723C152.575 164.803 152.53 164.877 152.465 164.922L146.679 168.8C146.639 168.83 146.589 168.84 146.539 168.84L146.559 168.845Z" fill="#896CFE"/>
<path d="M132.104 81.6529L119.639 72.4489C119.565 72.3942 119.525 72.2997 119.545 72.2052C119.56 72.1108 119.629 72.0362 119.719 72.0113L144.389 64.5427C144.389 64.5427 144.439 64.5327 144.464 64.5327H157.508V65.03H144.499L120.343 72.3445L132.408 81.2551L132.109 81.6529H132.104Z" fill="#896CFE"/>
<path d="M132.254 81.7027C132.174 81.7027 132.099 81.6679 132.049 81.5983C131.985 81.5088 131.985 81.3944 132.049 81.3049L144.02 64.9504L135.257 63.2847L135.351 62.7974L144.504 64.5377C144.539 64.5427 144.569 64.5576 144.594 64.5725L157.637 73.0655C157.717 73.1152 157.762 73.2097 157.747 73.3042C157.732 73.3987 157.667 73.4782 157.577 73.5081L132.334 81.6878C132.309 81.6977 132.284 81.6977 132.259 81.6977L132.254 81.7027ZM144.519 65.1195L132.912 80.9817L156.929 73.1998L144.519 65.1195Z" fill="#896CFE"/>
<path d="M126.014 139.279L125.495 136.39L121.006 129.463C120.966 129.404 120.956 129.329 120.976 129.259L122.118 125.266L120.707 107.908C120.707 107.908 120.707 107.873 120.707 107.858L122.393 94.3228L122.887 94.3824L121.206 107.893L122.617 125.271C122.617 125.301 122.617 125.331 122.607 125.361L121.48 129.289L125.934 136.161C125.954 136.191 125.964 136.221 125.969 136.251L126.498 139.189L126.009 139.279H126.014Z" fill="#896CFE"/>
<path d="M121.211 143.674C121.186 143.674 121.161 143.674 121.131 143.665L111.504 140.517C111.424 140.492 111.365 140.427 111.34 140.348C111.32 140.268 111.34 140.179 111.394 140.119L121.021 129.16C121.081 129.095 121.166 129.06 121.256 129.08L140.349 132.541C140.414 132.551 140.469 132.586 140.504 132.641L147.921 142.814C147.976 142.889 147.986 142.993 147.941 143.073C147.896 143.157 147.806 143.207 147.716 143.207L144.454 143.152C144.389 143.152 144.33 143.128 144.285 143.083L137.416 136.544H125.874L121.425 143.56C121.38 143.635 121.3 143.674 121.216 143.674H121.211ZM112.023 140.159L121.106 143.128L125.525 136.161C125.57 136.087 125.65 136.047 125.735 136.047H137.516C137.581 136.047 137.641 136.072 137.691 136.116L144.564 142.655L147.228 142.7L140.165 133.014L121.31 129.597L112.028 140.164L112.023 140.159Z" fill="#896CFE"/>
<path d="M147.716 143.207C147.611 143.207 147.517 143.143 147.482 143.038L143.087 130.453L140.474 132.964L140.13 132.606L143.023 129.826C143.082 129.767 143.172 129.742 143.252 129.762C143.337 129.782 143.402 129.841 143.432 129.921L147.881 142.665L152.819 141.611C152.819 141.611 152.854 141.606 152.869 141.606H157.498V142.103H152.894L147.766 143.197C147.766 143.197 147.731 143.202 147.716 143.202V143.207Z" fill="#896CFE"/>
<path d="M137.756 146.149L137.257 146.168L137.467 151.44L137.965 151.42L137.756 146.149Z" fill="#896CFE"/>
<path d="M126.746 146.471L120.358 151.216L120.656 151.615L127.044 146.87L126.746 146.471Z" fill="#896CFE"/>
<path d="M128.564 189.85L128.068 189.902L129.41 202.486L129.906 202.434L128.564 189.85Z" fill="#896CFE"/>
<path d="M157.497 178.86H152.395C152.225 178.86 149.522 177.865 144.364 175.906C144.275 175.871 144.21 175.787 144.205 175.687C144.2 175.588 144.25 175.498 144.334 175.454L150.539 172.152C150.609 172.112 150.699 172.112 150.769 172.152L154.395 174.012H157.492V174.509H154.335C154.295 174.509 154.255 174.499 154.22 174.479L150.654 172.649L145.048 175.633C148.03 176.761 152.125 178.298 152.425 178.363H157.492V178.855L157.497 178.86Z" fill="#896CFE"/>
<path d="M152.579 178.78L152.215 178.442L153.637 176.926L154.096 174.221L154.59 174.305L154.116 177.085C154.106 177.135 154.086 177.179 154.051 177.214L152.579 178.785V178.78Z" fill="#896CFE"/>
<path d="M150.41 172.36L150.358 175.661L150.857 175.669L150.908 172.368L150.41 172.36Z" fill="#896CFE"/>
<path d="M157.498 177.283H153.866C153.831 177.283 153.801 177.278 153.772 177.264L150.559 175.921H144.454C144.374 175.921 144.3 175.886 144.255 175.822C144.21 175.757 144.195 175.677 144.215 175.603L146.32 168.527L152.155 141.904L152.644 142.009L146.808 168.646L144.793 175.424H150.614C150.649 175.424 150.679 175.429 150.709 175.444L153.921 176.786H157.498V177.283Z" fill="#896CFE"/>
<path d="M122.891 208.481C122.847 208.481 122.797 208.466 122.757 208.441C122.662 208.381 122.622 208.267 122.652 208.163L128.034 189.924L112.372 166.215C112.347 166.175 112.332 166.13 112.332 166.086L111.334 140.288C111.334 140.179 111.394 140.085 111.499 140.045C111.599 140.005 111.714 140.04 111.778 140.124L120.617 151.173H137.631L147.552 142.765L147.876 143.143L137.885 151.611C137.84 151.65 137.78 151.67 137.725 151.67H120.502C120.427 151.67 120.353 151.636 120.308 151.576L111.868 141.024L112.836 165.996L128.523 189.74C128.563 189.799 128.573 189.879 128.553 189.948L123.375 207.496L129.446 202.315L136.444 182.559C136.459 182.52 136.483 182.485 136.513 182.46L144.3 175.488L144.634 175.856L136.897 182.788L129.899 202.549C129.884 202.588 129.86 202.628 129.825 202.653L123.066 208.421C123.021 208.461 122.961 208.481 122.901 208.481H122.891Z" fill="#896CFE"/>
<path d="M157.473 203.081L147.691 201.982C147.641 201.977 147.592 201.952 147.552 201.922L139.451 194.687C139.357 194.603 139.342 194.464 139.411 194.359C139.481 194.255 139.621 194.22 139.731 194.28L147.158 198.089L157.527 199.342L157.468 199.834L147.053 198.576C147.023 198.576 146.993 198.566 146.968 198.551L141.222 195.607L147.816 201.5L157.517 202.594L157.463 203.086L157.473 203.081Z" fill="#896CFE"/>
<path d="M147.326 198.276L146.836 198.366L147.467 201.774L147.958 201.684L147.326 198.276Z" fill="#896CFE"/>
<path d="M132.044 195.558L131.99 195.065L139.531 194.26L147.582 189.362C147.622 189.337 147.666 189.327 147.711 189.327H154.809C154.864 189.327 154.919 189.347 154.964 189.382L157.647 191.53C157.737 191.605 157.767 191.729 157.712 191.833C157.662 191.938 157.543 191.992 157.428 191.963L154.305 191.182L146.873 191.336L140.718 194.25H157.493V194.747H139.626L132.039 195.558H132.044ZM147.786 189.819L143.796 192.246L146.714 190.864C146.744 190.849 146.779 190.839 146.814 190.839L154.335 190.68C154.335 190.68 154.38 190.68 154.4 190.685L156.455 191.197L154.729 189.809H147.786V189.819Z" fill="#896CFE"/>
<path d="M154.961 178.606L154.573 189.563L155.071 189.581L155.459 178.624L154.961 178.606Z" fill="#896CFE"/>
<path d="M112.177 189.947L112.149 190.443L115.829 190.653L115.857 190.157L112.177 189.947Z" fill="#896CFE"/>
<path d="M109.205 175.245L106.247 174.499C106.177 174.484 106.122 174.44 106.087 174.375L97.6377 158.543C97.6228 158.518 97.6128 158.488 97.6128 158.458L95.5079 141.472C95.5029 141.427 95.5079 141.378 95.5279 141.338L98.366 135.256C98.4208 135.142 98.5455 135.087 98.6652 135.122L101.967 136.147L101.818 136.619L98.7251 135.659L96.0067 141.482L98.0966 158.354L106.471 174.052L109.324 174.773L109.205 175.255V175.245Z" fill="#896CFE"/>
<path d="M104.721 167.796C104.631 167.796 104.546 167.747 104.501 167.667L100.162 159.617C100.147 159.587 100.137 159.552 100.132 159.517L99.1091 144.654L98.1016 158.443L97.6028 158.408L98.8647 141.104C98.8747 140.99 98.9595 140.895 99.0692 140.875C99.179 140.855 99.2937 140.915 99.3386 141.02L105.703 155.077C105.733 155.146 105.733 155.231 105.693 155.301L103.324 159.532L104.696 165.41L107.888 166.996C107.988 167.045 108.042 167.155 108.023 167.264C108.003 167.374 107.913 167.453 107.803 167.468L104.745 167.796C104.745 167.796 104.726 167.796 104.721 167.796ZM100.625 159.428L104.86 167.284L106.905 167.065L104.371 165.802C104.307 165.768 104.257 165.708 104.242 165.638L102.82 159.552C102.805 159.492 102.815 159.428 102.845 159.373L105.204 155.166L99.4633 142.486L100.625 159.428Z" fill="#896CFE"/>
<path d="M95.7773 141.686L95.7324 141.189L98.8499 140.895L98.3461 135.376L98.8449 135.331L99.3686 141.099C99.3786 141.233 99.2788 141.358 99.1441 141.368L95.7773 141.681V141.686Z" fill="#896CFE"/>
<path d="M147.472 222.543L145.975 215.388C145.96 215.313 145.975 215.234 146.03 215.179L149.502 211.037C149.547 210.982 149.622 210.947 149.691 210.947H157.502V211.445H149.811L146.494 215.403L147.971 222.444L147.482 222.548L147.472 222.543Z" fill="#896CFE"/>
<path d="M146.22 215.587C146.185 215.587 146.15 215.582 146.12 215.567L131.92 209.302C131.855 209.272 131.81 209.222 131.785 209.157L129.421 202.549L129.89 202.38L132.219 208.884L145.816 214.886L139.381 194.568L139.855 194.419L146.454 215.259C146.484 215.353 146.454 215.452 146.385 215.517C146.34 215.557 146.28 215.582 146.22 215.582V215.587Z" fill="#896CFE"/>
<path d="M143.087 204.743L142.747 205.107L149.518 211.386L149.858 211.022L143.087 204.743Z" fill="#896CFE"/>
<path d="M99.2188 122.055L99.0193 121.597L103.553 119.643L108.142 108.306L108.606 108.49L103.977 119.921C103.952 119.981 103.907 120.031 103.843 120.056L99.2138 122.05L99.2188 122.055Z" fill="#896CFE"/>
<path d="M105.234 155.206L103.144 136.51L103.498 119.832L105.394 86.5809C105.399 86.4865 105.459 86.4019 105.543 86.3671C105.628 86.3323 105.733 86.3472 105.803 86.4069L112.113 91.7523L111.788 92.1302L105.858 87.108L103.992 119.852L103.638 136.49L105.728 155.156L105.234 155.211V155.206Z" fill="#896CFE"/>
<path d="M131.994 209.321L122.872 208.481C122.777 208.471 122.697 208.411 122.662 208.327L115.614 190.5L110.347 171.6C110.332 171.55 110.337 171.496 110.352 171.446L112.352 165.991C112.377 165.921 112.437 165.867 112.507 165.842C112.577 165.817 112.656 165.827 112.721 165.872L128.333 176.155L146.459 168.368L146.659 168.825L128.408 176.662C128.328 176.697 128.244 176.687 128.174 176.642L112.711 166.459L110.846 171.54L116.083 190.336L123.066 207.994L132.039 208.819L131.994 209.316V209.321Z" fill="#896CFE"/>
<path d="M110.352 171.615L106.072 159.582C106.062 159.547 106.057 159.512 106.057 159.477L107.604 141.104L108.127 108.405C108.127 108.271 108.232 108.166 108.367 108.161L120.941 107.639L139.167 103.293C139.197 103.288 139.222 103.283 139.252 103.288L157.528 105.332L157.473 105.824L139.242 103.785L121.011 108.126L108.621 108.649L108.097 141.129L106.556 159.467L110.816 171.451L110.347 171.615H110.352Z" fill="#896CFE"/>
<path d="M142.948 130.045L138.978 103.567C138.978 103.567 138.978 103.527 138.978 103.507L140.963 83.0601L141.462 83.1098L139.481 103.527L143.447 129.975L142.953 130.05L142.948 130.045Z" fill="#896CFE"/>
<path d="M108.551 108.584L108.202 108.226L122.463 94.169L132.054 81.3052L132.453 81.6035L122.837 94.4971L108.551 108.584Z" fill="#896CFE"/>
<path d="M128.558 189.884H128.059V176.433C128.059 176.339 128.114 176.254 128.199 176.209C128.283 176.17 128.383 176.174 128.458 176.234L136.823 182.45L147.851 189.361L147.586 189.784L136.543 182.862L128.563 176.935V189.889L128.558 189.884Z" fill="#896CFE"/>
<path d="M112.587 166.329C112.522 166.329 112.452 166.304 112.407 166.25L106.127 159.666L106.486 159.323L112.666 165.802L122.727 163.321L144.379 156.404L144.529 156.877L122.862 163.798L112.641 166.319C112.641 166.319 112.601 166.324 112.582 166.324L112.587 166.329Z" fill="#896CFE"/>
<path d="M128.079 176.533L122.557 163.659C122.557 163.659 122.547 163.624 122.542 163.609L120.253 151.471L120.742 151.382L123.026 163.495L128.538 176.344L128.079 176.538V176.533Z" fill="#896CFE"/>
<path d="M133.166 146.404C130.772 146.404 128.822 144.46 128.822 142.073C128.822 140.94 129.256 139.866 130.049 139.06L130.403 139.408C129.705 140.124 129.316 141.069 129.316 142.073C129.316 144.187 131.042 145.907 133.161 145.907C135.281 145.907 137.007 144.187 137.007 142.073C137.007 141.069 136.623 140.119 135.925 139.408L136.279 139.06C137.072 139.871 137.506 140.94 137.506 142.073C137.506 144.46 135.556 146.404 133.161 146.404H133.166Z" fill="#896CFE"/>
<path d="M131.431 142.068C131.431 143.023 132.209 143.799 133.167 143.799C134.124 143.799 134.902 143.023 134.902 142.068C134.902 141.114 134.124 140.338 133.167 140.338C132.209 140.338 131.431 141.114 131.431 142.068Z" fill="#896CFE"/>
<path d="M133.167 144.047C132.069 144.047 131.181 143.157 131.181 142.068C131.181 140.979 132.074 140.089 133.167 140.089C134.259 140.089 135.152 140.979 135.152 142.068C135.152 143.157 134.259 144.047 133.167 144.047ZM133.167 140.587C132.349 140.587 131.68 141.253 131.68 142.068C131.68 142.884 132.349 143.55 133.167 143.55C133.985 143.55 134.653 142.884 134.653 142.068C134.653 141.253 133.985 140.587 133.167 140.587Z" fill="#896CFE"/>
<path d="M107.853 141.373C107.788 141.373 107.718 141.348 107.673 141.298L103.214 136.659L103.573 136.316L107.938 140.855L111.319 140.095L110.761 133.914L111.26 133.869L111.838 140.264C111.848 140.388 111.768 140.502 111.644 140.527L107.908 141.368C107.908 141.368 107.873 141.373 107.853 141.373Z" fill="#896CFE"/>
<path d="M241 67.2229H240.501V56.4972H229.742V56H240.75C240.89 56 241 56.1094 241 56.2486V67.2229Z" fill="#896CFE"/>
<path d="M74.4988 67.2229H74V56.2486C74 56.1094 74.1097 56 74.2494 56H85.2577V56.4972H74.4988V67.2229Z" fill="#896CFE"/>
<path d="M240.75 233H229.742V232.503H240.501V221.777H241V232.752C241 232.891 240.89 233 240.75 233Z" fill="#896CFE"/>
<path d="M85.2577 233H74.2494C74.1097 233 74 232.891 74 232.752V221.777H74.4988V232.503H85.2577V233Z" fill="#896CFE"/>
<path d="M195.126 94.348C195.126 95.8696 193.889 97.1028 192.363 97.1028C190.837 97.1028 189.6 95.8696 189.6 94.348C189.6 92.8264 190.837 91.5933 192.363 91.5933C193.889 91.5933 195.126 92.8264 195.126 94.348Z" fill="#896CFE" stroke="#896CFE" stroke-width="0.5" stroke-miterlimit="10"/>
<path d="M193.839 94.3479C193.839 95.1634 193.176 95.8247 192.358 95.8247C191.54 95.8247 190.876 95.1634 190.876 94.3479C190.876 93.5324 191.54 92.8711 192.358 92.8711C193.176 92.8711 193.839 93.5324 193.839 94.3479Z" fill="#896CFE"/>
<path d="M173.788 85.8352C175.314 85.8352 176.551 84.6018 176.551 83.0804C176.551 81.559 175.314 80.3257 173.788 80.3257C172.262 80.3257 171.025 81.559 171.025 83.0804C171.025 84.6018 172.262 85.8352 173.788 85.8352Z" fill="#896CFE" stroke="#896CFE" stroke-width="0.5" stroke-miterlimit="10"/>
<path d="M175.269 83.0803C175.269 83.8958 174.606 84.5572 173.788 84.5572C172.97 84.5572 172.307 83.8958 172.307 83.0803C172.307 82.2649 172.97 81.6035 173.788 81.6035C174.606 81.6035 175.269 82.2649 175.269 83.0803Z" fill="#896CFE"/>
<path d="M178.537 103.527C178.537 105.049 177.3 106.282 175.773 106.282C174.247 106.282 173.01 105.049 173.01 103.527C173.01 102.006 174.247 100.772 175.773 100.772C177.3 100.772 178.537 102.006 178.537 103.527Z" fill="#896CFE" stroke="#896CFE" stroke-width="0.5" stroke-miterlimit="10"/>
<path d="M177.255 103.527C177.255 104.343 176.591 105.004 175.773 105.004C174.955 105.004 174.292 104.343 174.292 103.527C174.292 102.712 174.955 102.05 175.773 102.05C176.591 102.05 177.255 102.712 177.255 103.527Z" fill="#896CFE"/>
<path d="M185.51 81.4545C185.51 82.976 184.273 84.2092 182.746 84.2092C181.22 84.2092 179.983 82.976 179.983 81.4545C179.983 79.9329 181.22 78.6997 182.746 78.6997C184.273 78.6997 185.51 79.9329 185.51 81.4545Z" fill="#896CFE" stroke="#896CFE" stroke-width="0.5" stroke-miterlimit="10"/>
<path d="M184.228 81.4544C184.228 82.2698 183.565 82.9312 182.747 82.9312C181.929 82.9312 181.265 82.2698 181.265 81.4544C181.265 80.6389 181.929 79.9775 182.747 79.9775C183.565 79.9775 184.228 80.6389 184.228 81.4544Z" fill="#896CFE"/>
<path d="M170.541 67.5364C172.067 67.5364 173.304 66.303 173.304 64.7816C173.304 63.2602 172.067 62.0269 170.541 62.0269C169.015 62.0269 167.778 63.2602 167.778 64.7816C167.778 66.303 169.015 67.5364 170.541 67.5364Z" fill="#896CFE" stroke="#896CFE" stroke-width="0.5" stroke-miterlimit="10"/>
<path d="M172.022 64.7815C172.022 65.597 171.359 66.2583 170.541 66.2583C169.723 66.2583 169.06 65.597 169.06 64.7815C169.06 63.966 169.723 63.3047 170.541 63.3047C171.359 63.3047 172.022 63.966 172.022 64.7815Z" fill="#896CFE"/>
<path d="M194.044 110.638C195.57 110.638 196.807 109.405 196.807 107.883C196.807 106.362 195.57 105.128 194.044 105.128C192.518 105.128 191.281 106.362 191.281 107.883C191.281 109.405 192.518 110.638 194.044 110.638Z" fill="#896CFE" stroke="#896CFE" stroke-width="0.5" stroke-miterlimit="10"/>
<path d="M195.526 107.883C195.526 108.699 194.862 109.36 194.044 109.36C193.226 109.36 192.563 108.699 192.563 107.883C192.563 107.068 193.226 106.406 194.044 106.406C194.862 106.406 195.526 107.068 195.526 107.883Z" fill="#896CFE"/>
<path d="M206.623 111.16C208.15 111.16 209.387 109.927 209.387 108.405C209.387 106.884 208.15 105.65 206.623 105.65C205.097 105.65 203.86 106.884 203.86 108.405C203.86 109.927 205.097 111.16 206.623 111.16Z" fill="#896CFE" stroke="#896CFE" stroke-width="0.5" stroke-miterlimit="10"/>
<path d="M208.105 108.405C208.105 109.221 207.442 109.882 206.623 109.882C205.805 109.882 205.142 109.221 205.142 108.405C205.142 107.59 205.805 106.928 206.623 106.928C207.442 106.928 208.105 107.59 208.105 108.405Z" fill="#896CFE"/>
<path d="M214.016 119.837C214.016 121.358 212.779 122.592 211.252 122.592C209.726 122.592 208.489 121.358 208.489 119.837C208.489 118.315 209.726 117.082 211.252 117.082C212.779 117.082 214.016 118.315 214.016 119.837Z" fill="#896CFE" stroke="#896CFE" stroke-width="0.5" stroke-miterlimit="10"/>
<path d="M212.729 119.837C212.729 120.652 212.065 121.314 211.247 121.314C210.429 121.314 209.766 120.652 209.766 119.837C209.766 119.021 210.429 118.36 211.247 118.36C212.065 118.36 212.729 119.021 212.729 119.837Z" fill="#896CFE"/>
<path d="M215.881 143.879C217.407 143.879 218.644 142.645 218.644 141.124C218.644 139.602 217.407 138.369 215.881 138.369C214.355 138.369 213.118 139.602 213.118 141.124C213.118 142.645 214.355 143.879 215.881 143.879Z" fill="#896CFE" stroke="#896CFE" stroke-width="0.5" stroke-miterlimit="10"/>
<path d="M217.357 141.124C217.357 141.939 216.694 142.601 215.876 142.601C215.058 142.601 214.395 141.939 214.395 141.124C214.395 140.308 215.058 139.647 215.876 139.647C216.694 139.647 217.357 140.308 217.357 141.124Z" fill="#896CFE"/>
<path d="M214.699 159.497C214.699 161.019 213.462 162.252 211.936 162.252C210.409 162.252 209.172 161.019 209.172 159.497C209.172 157.976 210.409 156.743 211.936 156.743C213.462 156.743 214.699 157.976 214.699 159.497Z" fill="#896CFE" stroke="#896CFE" stroke-width="0.5" stroke-miterlimit="10"/>
<path d="M213.417 159.497C213.417 160.313 212.754 160.974 211.936 160.974C211.118 160.974 210.454 160.313 210.454 159.497C210.454 158.682 211.118 158.021 211.936 158.021C212.754 158.021 213.417 158.682 213.417 159.497Z" fill="#896CFE"/>
<path d="M195.396 125.286C195.396 126.808 194.159 128.041 192.632 128.041C191.106 128.041 189.869 126.808 189.869 125.286C189.869 123.765 191.106 122.532 192.632 122.532C194.159 122.532 195.396 123.765 195.396 125.286Z" fill="#896CFE" stroke="#896CFE" stroke-width="0.5" stroke-miterlimit="10"/>
<path d="M194.114 125.286C194.114 126.102 193.451 126.763 192.633 126.763C191.815 126.763 191.151 126.102 191.151 125.286C191.151 124.471 191.815 123.81 192.633 123.81C193.451 123.81 194.114 124.471 194.114 125.286Z" fill="#896CFE"/>
<path d="M196.553 143.426C196.553 144.948 195.316 146.181 193.79 146.181C192.263 146.181 191.026 144.948 191.026 143.426C191.026 141.905 192.263 140.671 193.79 140.671C195.316 140.671 196.553 141.905 196.553 143.426Z" fill="#896CFE" stroke="#896CFE" stroke-width="0.5" stroke-miterlimit="10"/>
<path d="M195.271 143.426C195.271 144.242 194.608 144.903 193.79 144.903C192.972 144.903 192.308 144.242 192.308 143.426C192.308 142.611 192.972 141.949 193.79 141.949C194.608 141.949 195.271 142.611 195.271 143.426Z" fill="#896CFE"/>
<path d="M177.484 139.051C179.01 139.051 180.247 137.817 180.247 136.296C180.247 134.774 179.01 133.541 177.484 133.541C175.958 133.541 174.721 134.774 174.721 136.296C174.721 137.817 175.958 139.051 177.484 139.051Z" fill="#896CFE" stroke="#896CFE" stroke-width="0.5" stroke-miterlimit="10"/>
<path d="M178.966 136.296C178.966 137.111 178.302 137.772 177.484 137.772C176.666 137.772 176.003 137.111 176.003 136.296C176.003 135.48 176.666 134.819 177.484 134.819C178.302 134.819 178.966 135.48 178.966 136.296Z" fill="#896CFE"/>
<path d="M194.498 154.176C196.024 154.176 197.261 152.943 197.261 151.422C197.261 149.9 196.024 148.667 194.498 148.667C192.972 148.667 191.735 149.9 191.735 151.422C191.735 152.943 192.972 154.176 194.498 154.176Z" fill="#896CFE" stroke="#896CFE" stroke-width="0.5" stroke-miterlimit="10"/>
<path d="M195.979 151.422C195.979 152.237 195.316 152.898 194.498 152.898C193.68 152.898 193.017 152.237 193.017 151.422C193.017 150.606 193.68 149.945 194.498 149.945C195.316 149.945 195.979 150.606 195.979 151.422Z" fill="#896CFE"/>
<path d="M170.541 159.492C172.067 159.492 173.304 158.259 173.304 156.738C173.304 155.216 172.067 153.983 170.541 153.983C169.015 153.983 167.778 155.216 167.778 156.738C167.778 158.259 169.015 159.492 170.541 159.492Z" fill="#896CFE" stroke="#896CFE" stroke-width="0.5" stroke-miterlimit="10"/>
<path d="M172.022 156.738C172.022 157.553 171.359 158.214 170.541 158.214C169.723 158.214 169.06 157.553 169.06 156.738C169.06 155.922 169.723 155.261 170.541 155.261C171.359 155.261 172.022 155.922 172.022 156.738Z" fill="#896CFE"/>
<path d="M206.179 140.284C206.179 141.805 204.942 143.038 203.416 143.038C201.89 143.038 200.653 141.805 200.653 140.284C200.653 138.762 201.89 137.529 203.416 137.529C204.942 137.529 206.179 138.762 206.179 140.284Z" fill="#896CFE" stroke="#896CFE" stroke-width="0.5" stroke-miterlimit="10"/>
<path d="M204.893 140.283C204.893 141.099 204.229 141.76 203.411 141.76C202.593 141.76 201.93 141.099 201.93 140.283C201.93 139.468 202.593 138.807 203.411 138.807C204.229 138.807 204.893 139.468 204.893 140.283Z" fill="#896CFE"/>
<path d="M171.204 168.597C171.204 170.119 169.967 171.352 168.441 171.352C166.915 171.352 165.678 170.119 165.678 168.597C165.678 167.075 166.915 165.842 168.441 165.842C169.967 165.842 171.204 167.075 171.204 168.597Z" fill="#896CFE" stroke="#896CFE" stroke-width="0.5" stroke-miterlimit="10"/>
<path d="M169.923 168.597C169.923 169.412 169.259 170.074 168.441 170.074C167.623 170.074 166.96 169.412 166.96 168.597C166.96 167.781 167.623 167.12 168.441 167.12C169.259 167.12 169.923 167.781 169.923 168.597Z" fill="#896CFE"/>
<path d="M173.309 175.673C173.309 177.194 172.072 178.427 170.546 178.427C169.02 178.427 167.783 177.194 167.783 175.673C167.783 174.151 169.02 172.918 170.546 172.918C172.072 172.918 173.309 174.151 173.309 175.673Z" fill="#896CFE" stroke="#896CFE" stroke-width="0.5" stroke-miterlimit="10"/>
<path d="M172.022 175.673C172.022 176.488 171.359 177.149 170.541 177.149C169.723 177.149 169.06 176.488 169.06 175.673C169.06 174.857 169.723 174.196 170.541 174.196C171.359 174.196 172.022 174.857 172.022 175.673Z" fill="#896CFE"/>
<path d="M161.129 179.79C162.655 179.79 163.892 178.556 163.892 177.035C163.892 175.514 162.655 174.28 161.129 174.28C159.603 174.28 158.365 175.514 158.365 177.035C158.365 178.556 159.603 179.79 161.129 179.79Z" fill="#896CFE" stroke="#896CFE" stroke-width="0.5" stroke-miterlimit="10"/>
<path d="M162.61 177.035C162.61 177.85 161.947 178.512 161.129 178.512C160.311 178.512 159.647 177.85 159.647 177.035C159.647 176.219 160.311 175.558 161.129 175.558C161.947 175.558 162.61 176.219 162.61 177.035Z" fill="#896CFE"/>
<path d="M170.541 145.659C172.067 145.659 173.304 144.426 173.304 142.904C173.304 141.383 172.067 140.149 170.541 140.149C169.015 140.149 167.778 141.383 167.778 142.904C167.778 144.426 169.015 145.659 170.541 145.659Z" fill="#896CFE" stroke="#896CFE" stroke-width="0.5" stroke-miterlimit="10"/>
<path d="M172.022 142.904C172.022 143.72 171.359 144.381 170.541 144.381C169.723 144.381 169.06 143.72 169.06 142.904C169.06 142.089 169.723 141.427 170.541 141.427C171.359 141.427 172.022 142.089 172.022 142.904Z" fill="#896CFE"/>
<path d="M205.182 166.081C205.182 167.602 203.945 168.836 202.419 168.836C200.892 168.836 199.655 167.602 199.655 166.081C199.655 164.559 200.892 163.326 202.419 163.326C203.945 163.326 205.182 164.559 205.182 166.081Z" fill="#896CFE" stroke="#896CFE" stroke-width="0.5" stroke-miterlimit="10"/>
<path d="M203.895 166.081C203.895 166.896 203.232 167.558 202.414 167.558C201.596 167.558 200.932 166.896 200.932 166.081C200.932 165.265 201.596 164.604 202.414 164.604C203.232 164.604 203.895 165.265 203.895 166.081Z" fill="#896CFE"/>
<path d="M189.455 176.433C189.455 177.955 188.218 179.188 186.692 179.188C185.165 179.188 183.928 177.955 183.928 176.433C183.928 174.912 185.165 173.679 186.692 173.679C188.218 173.679 189.455 174.912 189.455 176.433Z" fill="#896CFE" stroke="#896CFE" stroke-width="0.5" stroke-miterlimit="10"/>
<path d="M188.168 176.433C188.168 177.249 187.505 177.91 186.687 177.91C185.869 177.91 185.205 177.249 185.205 176.433C185.205 175.618 185.869 174.957 186.687 174.957C187.505 174.957 188.168 175.618 188.168 176.433Z" fill="#896CFE"/>
<path d="M178.147 194.494C178.147 196.015 176.91 197.248 175.384 197.248C173.858 197.248 172.621 196.015 172.621 194.494C172.621 192.972 173.858 191.739 175.384 191.739C176.91 191.739 178.147 192.972 178.147 194.494Z" fill="#896CFE" stroke="#896CFE" stroke-width="0.5" stroke-miterlimit="10"/>
<path d="M176.861 194.493C176.861 195.309 176.197 195.97 175.379 195.97C174.561 195.97 173.898 195.309 173.898 194.493C173.898 193.678 174.561 193.017 175.379 193.017C176.197 193.017 176.861 193.678 176.861 194.493Z" fill="#896CFE"/>
<path d="M192.109 210.987C193.635 210.987 194.872 209.754 194.872 208.232C194.872 206.711 193.635 205.478 192.109 205.478C190.583 205.478 189.345 206.711 189.345 208.232C189.345 209.754 190.583 210.987 192.109 210.987Z" fill="#896CFE" stroke="#896CFE" stroke-width="0.5" stroke-miterlimit="10"/>
<path d="M192.109 209.709C192.927 209.709 193.59 209.048 193.59 208.232C193.59 207.417 192.927 206.755 192.109 206.755C191.291 206.755 190.627 207.417 190.627 208.232C190.627 209.048 191.291 209.709 192.109 209.709Z" fill="#896CFE"/>
<path d="M201.92 190.406C201.92 191.928 200.683 193.161 199.157 193.161C197.63 193.161 196.393 191.928 196.393 190.406C196.393 188.885 197.63 187.651 199.157 187.651C200.683 187.651 201.92 188.885 201.92 190.406Z" fill="#896CFE" stroke="#896CFE" stroke-width="0.5" stroke-miterlimit="10"/>
<path d="M200.633 190.406C200.633 191.222 199.97 191.883 199.152 191.883C198.334 191.883 197.67 191.222 197.67 190.406C197.67 189.591 198.334 188.929 199.152 188.929C199.97 188.929 200.633 189.591 200.633 190.406Z" fill="#896CFE"/>
<path d="M188.113 202.464C188.113 203.986 186.876 205.219 185.35 205.219C183.824 205.219 182.587 203.986 182.587 202.464C182.587 200.943 183.824 199.709 185.35 199.709C186.876 199.709 188.113 200.943 188.113 202.464Z" fill="#896CFE" stroke="#896CFE" stroke-width="0.5" stroke-miterlimit="10"/>
<path d="M186.826 202.464C186.826 203.28 186.163 203.941 185.345 203.941C184.527 203.941 183.864 203.28 183.864 202.464C183.864 201.649 184.527 200.987 185.345 200.987C186.163 200.987 186.826 201.649 186.826 202.464Z" fill="#896CFE"/>
<path d="M168.077 211.196C168.077 212.718 166.84 213.951 165.314 213.951C163.787 213.951 162.55 212.718 162.55 211.196C162.55 209.675 163.787 208.441 165.314 208.441C166.84 208.441 168.077 209.675 168.077 211.196Z" fill="#896CFE" stroke="#896CFE" stroke-width="0.5" stroke-miterlimit="10"/>
<path d="M166.79 211.196C166.79 212.012 166.127 212.673 165.309 212.673C164.491 212.673 163.827 212.012 163.827 211.196C163.827 210.381 164.491 209.719 165.309 209.719C166.127 209.719 166.79 210.381 166.79 211.196Z" fill="#896CFE"/>
<path d="M170.047 222.494C170.047 224.015 168.81 225.248 167.284 225.248C165.758 225.248 164.521 224.015 164.521 222.494C164.521 220.972 165.758 219.739 167.284 219.739C168.81 219.739 170.047 220.972 170.047 222.494Z" fill="#896CFE"/>
<path d="M170.047 222.494C170.047 224.015 168.81 225.248 167.284 225.248C165.758 225.248 164.521 224.015 164.521 222.494C164.521 220.972 165.758 219.739 167.284 219.739C168.81 219.739 170.047 220.972 170.047 222.494Z" stroke="#896CFE" stroke-width="0.5" stroke-miterlimit="10"/>
<path d="M170.047 222.494C170.047 224.015 168.81 225.248 167.284 225.248C165.758 225.248 164.521 224.015 164.521 222.494C164.521 220.972 165.758 219.739 167.284 219.739C168.81 219.739 170.047 220.972 170.047 222.494Z" stroke="#896CFE" stroke-width="0.5" stroke-miterlimit="10"/>
<path d="M168.265 222.493C168.265 223.031 167.827 223.47 167.284 223.47C166.741 223.47 166.302 223.031 166.302 222.493C166.302 221.956 166.741 221.517 167.284 221.517C167.827 221.517 168.265 221.956 168.265 222.493Z" fill="#896CFE" stroke="#896CFE"/>
<path d="M171.803 132.76C173.329 132.76 174.566 131.527 174.566 130.006C174.566 128.484 173.329 127.251 171.803 127.251C170.277 127.251 169.04 128.484 169.04 130.006C169.04 131.527 170.277 132.76 171.803 132.76Z" fill="#896CFE" stroke="#896CFE" stroke-width="0.5" stroke-miterlimit="10"/>
<path d="M173.284 130.006C173.284 130.821 172.621 131.482 171.803 131.482C170.985 131.482 170.322 130.821 170.322 130.006C170.322 129.19 170.985 128.529 171.803 128.529C172.621 128.529 173.284 129.19 173.284 130.006Z" fill="#896CFE"/>
<path d="M165.368 141.954C165.368 143.476 164.131 144.709 162.605 144.709C161.079 144.709 159.842 143.476 159.842 141.954C159.842 140.433 161.079 139.2 162.605 139.2C164.131 139.2 165.368 140.433 165.368 141.954Z" fill="#896CFE" stroke="#896CFE" stroke-width="0.5" stroke-miterlimit="10"/>
<path d="M164.081 141.954C164.081 142.77 163.418 143.431 162.6 143.431C161.782 143.431 161.119 142.77 161.119 141.954C161.119 141.139 161.782 140.478 162.6 140.478C163.418 140.478 164.081 141.139 164.081 141.954Z" fill="#896CFE"/>
<path d="M120.348 94.348C120.348 95.8696 121.585 97.1028 123.111 97.1028C124.637 97.1028 125.874 95.8696 125.874 94.348C125.874 92.8264 124.637 91.5933 123.111 91.5933C121.585 91.5933 120.348 92.8264 120.348 94.348Z" fill="#896CFE" stroke="#896CFE" stroke-width="0.5" stroke-miterlimit="10"/>
<path d="M121.63 94.3479C121.63 95.1634 122.293 95.8247 123.111 95.8247C123.929 95.8247 124.592 95.1634 124.592 94.3479C124.592 93.5324 123.929 92.8711 123.111 92.8711C122.293 92.8711 121.63 93.5324 121.63 94.3479Z" fill="#896CFE"/>
<path d="M141.686 85.8352C143.212 85.8352 144.449 84.6018 144.449 83.0804C144.449 81.559 143.212 80.3257 141.686 80.3257C140.16 80.3257 138.923 81.559 138.923 83.0804C138.923 84.6018 140.16 85.8352 141.686 85.8352Z" fill="#896CFE" stroke="#896CFE" stroke-width="0.5" stroke-miterlimit="10"/>
<path d="M140.205 83.0803C140.205 83.8958 140.868 84.5572 141.686 84.5572C142.504 84.5572 143.167 83.8958 143.167 83.0803C143.167 82.2649 142.504 81.6035 141.686 81.6035C140.868 81.6035 140.205 82.2649 140.205 83.0803Z" fill="#896CFE"/>
<path d="M136.932 103.527C136.932 105.049 138.169 106.282 139.696 106.282C141.222 106.282 142.459 105.049 142.459 103.527C142.459 102.006 141.222 100.772 139.696 100.772C138.169 100.772 136.932 102.006 136.932 103.527Z" fill="#896CFE" stroke="#896CFE" stroke-width="0.5" stroke-miterlimit="10"/>
<path d="M138.219 103.527C138.219 104.343 138.883 105.004 139.701 105.004C140.519 105.004 141.182 104.343 141.182 103.527C141.182 102.712 140.519 102.05 139.701 102.05C138.883 102.05 138.219 102.712 138.219 103.527Z" fill="#896CFE"/>
<path d="M129.964 81.4545C129.964 82.976 131.201 84.2092 132.727 84.2092C134.254 84.2092 135.491 82.976 135.491 81.4545C135.491 79.9329 134.254 78.6997 132.727 78.6997C131.201 78.6997 129.964 79.9329 129.964 81.4545Z" fill="#896CFE" stroke="#896CFE" stroke-width="0.5" stroke-miterlimit="10"/>
<path d="M131.246 81.4544C131.246 82.2698 131.909 82.9312 132.728 82.9312C133.546 82.9312 134.209 82.2698 134.209 81.4544C134.209 80.6389 133.546 79.9775 132.728 79.9775C131.909 79.9775 131.246 80.6389 131.246 81.4544Z" fill="#896CFE"/>
<path d="M142.165 64.7816C142.165 66.3032 143.402 67.5364 144.928 67.5364C146.454 67.5364 147.691 66.3032 147.691 64.7816C147.691 63.26 146.454 62.0269 144.928 62.0269C143.402 62.0269 142.165 63.26 142.165 64.7816Z" fill="#896CFE" stroke="#896CFE" stroke-width="0.5" stroke-miterlimit="10"/>
<path d="M143.451 64.7815C143.451 65.597 144.115 66.2583 144.933 66.2583C145.751 66.2583 146.414 65.597 146.414 64.7815C146.414 63.966 145.751 63.3047 144.933 63.3047C144.115 63.3047 143.451 63.966 143.451 64.7815Z" fill="#896CFE"/>
<path d="M118.662 107.883C118.662 109.405 119.899 110.638 121.425 110.638C122.951 110.638 124.188 109.405 124.188 107.883C124.188 106.362 122.951 105.128 121.425 105.128C119.899 105.128 118.662 106.362 118.662 107.883Z" fill="#896CFE" stroke="#896CFE" stroke-width="0.5" stroke-miterlimit="10"/>
<path d="M119.948 107.883C119.948 108.699 120.612 109.36 121.43 109.36C122.248 109.36 122.911 108.699 122.911 107.883C122.911 107.068 122.248 106.406 121.43 106.406C120.612 106.406 119.948 107.068 119.948 107.883Z" fill="#896CFE"/>
<path d="M108.85 111.16C110.377 111.16 111.614 109.927 111.614 108.405C111.614 106.884 110.377 105.65 108.85 105.65C107.324 105.65 106.087 106.884 106.087 108.405C106.087 109.927 107.324 111.16 108.85 111.16Z" fill="#896CFE" stroke="#896CFE" stroke-width="0.5" stroke-miterlimit="10"/>
<path d="M107.369 108.405C107.369 109.221 108.033 109.882 108.851 109.882C109.669 109.882 110.332 109.221 110.332 108.405C110.332 107.59 109.669 106.928 108.851 106.928C108.033 106.928 107.369 107.59 107.369 108.405Z" fill="#896CFE"/>
<path d="M104.222 122.592C105.748 122.592 106.985 121.358 106.985 119.837C106.985 118.315 105.748 117.082 104.222 117.082C102.695 117.082 101.458 118.315 101.458 119.837C101.458 121.358 102.695 122.592 104.222 122.592Z" fill="#896CFE" stroke="#896CFE" stroke-width="0.5" stroke-miterlimit="10"/>
<path d="M102.74 119.837C102.74 120.652 103.404 121.314 104.222 121.314C105.04 121.314 105.703 120.652 105.703 119.837C105.703 119.021 105.04 118.36 104.222 118.36C103.404 118.36 102.74 119.021 102.74 119.837Z" fill="#896CFE"/>
<path d="M99.5929 143.879C101.119 143.879 102.356 142.645 102.356 141.124C102.356 139.602 101.119 138.369 99.5929 138.369C98.0668 138.369 96.8296 139.602 96.8296 141.124C96.8296 142.645 98.0668 143.879 99.5929 143.879Z" fill="#896CFE" stroke="#896CFE" stroke-width="0.5" stroke-miterlimit="10"/>
<path d="M98.1116 141.124C98.1116 141.939 98.775 142.601 99.593 142.601C100.411 142.601 101.074 141.939 101.074 141.124C101.074 140.308 100.411 139.647 99.593 139.647C98.775 139.647 98.1116 140.308 98.1116 141.124Z" fill="#896CFE"/>
<path d="M100.775 159.497C100.775 161.019 102.012 162.252 103.538 162.252C105.064 162.252 106.302 161.019 106.302 159.497C106.302 157.976 105.064 156.743 103.538 156.743C102.012 156.743 100.775 157.976 100.775 159.497Z" fill="#896CFE" stroke="#896CFE" stroke-width="0.5" stroke-miterlimit="10"/>
<path d="M102.057 159.497C102.057 160.313 102.72 160.974 103.538 160.974C104.356 160.974 105.02 160.313 105.02 159.497C105.02 158.682 104.356 158.021 103.538 158.021C102.72 158.021 102.057 158.682 102.057 159.497Z" fill="#896CFE"/>
<path d="M120.073 125.286C120.073 126.808 121.31 128.041 122.837 128.041C124.363 128.041 125.6 126.808 125.6 125.286C125.6 123.765 124.363 122.532 122.837 122.532C121.31 122.532 120.073 123.765 120.073 125.286Z" fill="#896CFE" stroke="#896CFE" stroke-width="0.5" stroke-miterlimit="10"/>
<path d="M121.36 125.286C121.36 126.102 122.023 126.763 122.842 126.763C123.66 126.763 124.323 126.102 124.323 125.286C124.323 124.471 123.66 123.81 122.842 123.81C122.023 123.81 121.36 124.471 121.36 125.286Z" fill="#896CFE"/>
<path d="M118.916 143.426C118.916 144.948 120.153 146.181 121.679 146.181C123.206 146.181 124.443 144.948 124.443 143.426C124.443 141.905 123.206 140.671 121.679 140.671C120.153 140.671 118.916 141.905 118.916 143.426Z" fill="#896CFE" stroke="#896CFE" stroke-width="0.5" stroke-miterlimit="10"/>
<path d="M120.203 143.426C120.203 144.242 120.866 144.903 121.684 144.903C122.502 144.903 123.166 144.242 123.166 143.426C123.166 142.611 122.502 141.949 121.684 141.949C120.866 141.949 120.203 142.611 120.203 143.426Z" fill="#896CFE"/>
<path d="M135.221 136.296C135.221 137.817 136.458 139.051 137.985 139.051C139.511 139.051 140.748 137.817 140.748 136.296C140.748 134.774 139.511 133.541 137.985 133.541C136.458 133.541 135.221 134.774 135.221 136.296Z" fill="#896CFE" stroke="#896CFE" stroke-width="0.5" stroke-miterlimit="10"/>
<path d="M136.508 136.296C136.508 137.111 137.172 137.772 137.99 137.772C138.808 137.772 139.471 137.111 139.471 136.296C139.471 135.48 138.808 134.819 137.99 134.819C137.172 134.819 136.508 135.48 136.508 136.296Z" fill="#896CFE"/>
<path d="M120.976 154.176C122.502 154.176 123.739 152.943 123.739 151.422C123.739 149.9 122.502 148.667 120.976 148.667C119.45 148.667 118.213 149.9 118.213 151.422C118.213 152.943 119.45 154.176 120.976 154.176Z" fill="#896CFE" stroke="#896CFE" stroke-width="0.5" stroke-miterlimit="10"/>
<path d="M119.495 151.422C119.495 152.237 120.158 152.898 120.976 152.898C121.794 152.898 122.457 152.237 122.457 151.422C122.457 150.606 121.794 149.945 120.976 149.945C120.158 149.945 119.495 150.606 119.495 151.422Z" fill="#896CFE"/>
<path d="M109.294 140.284C109.294 141.805 110.531 143.038 112.058 143.038C113.584 143.038 114.821 141.805 114.821 140.284C114.821 138.762 113.584 137.529 112.058 137.529C110.531 137.529 109.294 138.762 109.294 140.284Z" fill="#896CFE" stroke="#896CFE" stroke-width="0.5" stroke-miterlimit="10"/>
<path d="M110.576 140.283C110.576 141.099 111.24 141.76 112.058 141.76C112.876 141.76 113.539 141.099 113.539 140.283C113.539 139.468 112.876 138.807 112.058 138.807C111.24 138.807 110.576 139.468 110.576 140.283Z" fill="#896CFE"/>
<path d="M147.033 171.352C148.559 171.352 149.796 170.118 149.796 168.597C149.796 167.076 148.559 165.842 147.033 165.842C145.507 165.842 144.27 167.076 144.27 168.597C144.27 170.118 145.507 171.352 147.033 171.352Z" fill="#896CFE" stroke="#896CFE" stroke-width="0.5" stroke-miterlimit="10"/>
<path d="M145.552 168.597C145.552 169.412 146.215 170.074 147.033 170.074C147.851 170.074 148.514 169.412 148.514 168.597C148.514 167.781 147.851 167.12 147.033 167.12C146.215 167.12 145.552 167.781 145.552 168.597Z" fill="#896CFE"/>
<path d="M142.165 175.673C142.165 177.194 143.402 178.427 144.928 178.427C146.454 178.427 147.691 177.194 147.691 175.673C147.691 174.151 146.454 172.918 144.928 172.918C143.402 172.918 142.165 174.151 142.165 175.673Z" fill="#896CFE" stroke="#896CFE" stroke-width="0.5" stroke-miterlimit="10"/>
<path d="M143.451 175.673C143.451 176.488 144.115 177.149 144.933 177.149C145.751 177.149 146.414 176.488 146.414 175.673C146.414 174.857 145.751 174.196 144.933 174.196C144.115 174.196 143.451 174.857 143.451 175.673Z" fill="#896CFE"/>
<path d="M154.345 179.79C155.871 179.79 157.108 178.556 157.108 177.035C157.108 175.514 155.871 174.28 154.345 174.28C152.819 174.28 151.582 175.514 151.582 177.035C151.582 178.556 152.819 179.79 154.345 179.79Z" fill="#896CFE" stroke="#896CFE" stroke-width="0.5" stroke-miterlimit="10"/>
<path d="M152.864 177.035C152.864 177.85 153.527 178.512 154.345 178.512C155.163 178.512 155.827 177.85 155.827 177.035C155.827 176.219 155.163 175.558 154.345 175.558C153.527 175.558 152.864 176.219 152.864 177.035Z" fill="#896CFE"/>
<path d="M142.165 142.904C142.165 144.426 143.402 145.659 144.928 145.659C146.454 145.659 147.691 144.426 147.691 142.904C147.691 141.383 146.454 140.149 144.928 140.149C143.402 140.149 142.165 141.383 142.165 142.904Z" fill="#896CFE" stroke="#896CFE" stroke-width="0.5" stroke-miterlimit="10"/>
<path d="M143.451 142.904C143.451 143.72 144.115 144.381 144.933 144.381C145.751 144.381 146.414 143.72 146.414 142.904C146.414 142.089 145.751 141.427 144.933 141.427C144.115 141.427 143.451 142.089 143.451 142.904Z" fill="#896CFE"/>
<path d="M144.459 159.492C145.985 159.492 147.222 158.259 147.222 156.738C147.222 155.216 145.985 153.983 144.459 153.983C142.933 153.983 141.696 155.216 141.696 156.738C141.696 158.259 142.933 159.492 144.459 159.492Z" fill="#896CFE" stroke="#896CFE" stroke-width="0.5" stroke-miterlimit="10"/>
<path d="M142.978 156.738C142.978 157.553 143.641 158.214 144.459 158.214C145.277 158.214 145.941 157.553 145.941 156.738C145.941 155.922 145.277 155.261 144.459 155.261C143.641 155.261 142.978 155.922 142.978 156.738Z" fill="#896CFE"/>
<path d="M113.06 168.836C114.586 168.836 115.823 167.602 115.823 166.081C115.823 164.56 114.586 163.326 113.06 163.326C111.534 163.326 110.297 164.56 110.297 166.081C110.297 167.602 111.534 168.836 113.06 168.836Z" fill="#896CFE" stroke="#896CFE" stroke-width="0.5" stroke-miterlimit="10"/>
<path d="M111.579 166.081C111.579 166.896 112.242 167.558 113.06 167.558C113.878 167.558 114.542 166.896 114.542 166.081C114.542 165.265 113.878 164.604 113.06 164.604C112.242 164.604 111.579 165.265 111.579 166.081Z" fill="#896CFE"/>
<path d="M126.019 176.433C126.019 177.955 127.256 179.188 128.782 179.188C130.308 179.188 131.545 177.955 131.545 176.433C131.545 174.912 130.308 173.679 128.782 173.679C127.256 173.679 126.019 174.912 126.019 176.433Z" fill="#896CFE" stroke="#896CFE" stroke-width="0.5" stroke-miterlimit="10"/>
<path d="M127.301 176.433C127.301 177.249 127.964 177.91 128.782 177.91C129.6 177.91 130.264 177.249 130.264 176.433C130.264 175.618 129.6 174.957 128.782 174.957C127.964 174.957 127.301 175.618 127.301 176.433Z" fill="#896CFE"/>
<path d="M140.09 197.248C141.616 197.248 142.853 196.015 142.853 194.494C142.853 192.972 141.616 191.739 140.09 191.739C138.564 191.739 137.326 192.972 137.326 194.494C137.326 196.015 138.564 197.248 140.09 197.248Z" fill="#896CFE" stroke="#896CFE" stroke-width="0.5" stroke-miterlimit="10"/>
<path d="M138.608 194.493C138.608 195.309 139.272 195.97 140.09 195.97C140.908 195.97 141.571 195.309 141.571 194.493C141.571 193.678 140.908 193.017 140.09 193.017C139.272 193.017 138.608 193.678 138.608 194.493Z" fill="#896CFE"/>
<path d="M123.365 210.987C124.891 210.987 126.129 209.754 126.129 208.232C126.129 206.711 124.891 205.478 123.365 205.478C121.839 205.478 120.602 206.711 120.602 208.232C120.602 209.754 121.839 210.987 123.365 210.987Z" fill="#896CFE" stroke="#896CFE" stroke-width="0.5" stroke-miterlimit="10"/>
<path d="M121.884 208.232C121.884 209.048 122.547 209.709 123.365 209.709C124.183 209.709 124.847 209.048 124.847 208.232C124.847 207.417 124.183 206.755 123.365 206.755C122.547 206.755 121.884 207.417 121.884 208.232Z" fill="#896CFE"/>
<path d="M113.554 190.406C113.554 191.928 114.791 193.161 116.317 193.161C117.844 193.161 119.081 191.928 119.081 190.406C119.081 188.885 117.844 187.651 116.317 187.651C114.791 187.651 113.554 188.885 113.554 190.406Z" fill="#896CFE" stroke="#896CFE" stroke-width="0.5" stroke-miterlimit="10"/>
<path d="M114.841 190.406C114.841 191.222 115.504 191.883 116.322 191.883C117.14 191.883 117.804 191.222 117.804 190.406C117.804 189.591 117.14 188.929 116.322 188.929C115.504 188.929 114.841 189.591 114.841 190.406Z" fill="#896CFE"/>
<path d="M127.361 202.464C127.361 203.986 128.598 205.219 130.124 205.219C131.65 205.219 132.887 203.986 132.887 202.464C132.887 200.943 131.65 199.709 130.124 199.709C128.598 199.709 127.361 200.943 127.361 202.464Z" fill="#896CFE" stroke="#896CFE" stroke-width="0.5" stroke-miterlimit="10"/>
<path d="M128.643 202.464C128.643 203.28 129.306 203.941 130.124 203.941C130.942 203.941 131.605 203.28 131.605 202.464C131.605 201.649 130.942 200.987 130.124 200.987C129.306 200.987 128.643 201.649 128.643 202.464Z" fill="#896CFE"/>
<path d="M147.397 211.196C147.397 212.718 148.634 213.951 150.16 213.951C151.687 213.951 152.924 212.718 152.924 211.196C152.924 209.675 151.687 208.441 150.16 208.441C148.634 208.441 147.397 209.675 147.397 211.196Z" fill="#896CFE" stroke="#896CFE" stroke-width="0.5" stroke-miterlimit="10"/>
<path d="M148.684 211.196C148.684 212.012 149.347 212.673 150.165 212.673C150.983 212.673 151.647 212.012 151.647 211.196C151.647 210.381 150.983 209.719 150.165 209.719C149.347 209.719 148.684 210.381 148.684 211.196Z" fill="#896CFE"/>
<path d="M145.427 222.494C145.427 224.015 146.664 225.248 148.19 225.248C149.716 225.248 150.953 224.015 150.953 222.494C150.953 220.972 149.716 219.739 148.19 219.739C146.664 219.739 145.427 220.972 145.427 222.494Z" fill="#896CFE" stroke="#896CFE" stroke-width="0.5" stroke-miterlimit="10"/>
<path d="M146.709 222.493C146.709 223.309 147.372 223.97 148.19 223.97C149.008 223.97 149.672 223.309 149.672 222.493C149.672 221.678 149.008 221.017 148.19 221.017C147.372 221.017 146.709 221.678 146.709 222.493Z" fill="#896CFE"/>
<path d="M140.903 130.006C140.903 131.527 142.14 132.76 143.666 132.76C145.192 132.76 146.429 131.527 146.429 130.006C146.429 128.484 145.192 127.251 143.666 127.251C142.14 127.251 140.903 128.484 140.903 130.006Z" fill="#896CFE" stroke="#896CFE" stroke-width="0.5" stroke-miterlimit="10"/>
<path d="M142.185 130.006C142.185 130.821 142.848 131.482 143.666 131.482C144.484 131.482 145.147 130.821 145.147 130.006C145.147 129.19 144.484 128.529 143.666 128.529C142.848 128.529 142.185 129.19 142.185 130.006Z" fill="#896CFE"/>
<path d="M150.105 141.954C150.105 143.476 151.342 144.709 152.869 144.709C154.395 144.709 155.632 143.476 155.632 141.954C155.632 140.433 154.395 139.2 152.869 139.2C151.342 139.2 150.105 140.433 150.105 141.954Z" fill="#896CFE" stroke="#896CFE" stroke-width="0.5" stroke-miterlimit="10"/>
<path d="M151.392 141.954C151.392 142.77 152.056 143.431 152.874 143.431C153.692 143.431 154.355 142.77 154.355 141.954C154.355 141.139 153.692 140.478 152.874 140.478C152.056 140.478 151.392 141.139 151.392 141.954Z" fill="#896CFE"/>
</g>
<defs>
<filter id="filter0_d_80_2561" x="70" y="56" width="175" height="185" filterUnits="userSpaceOnUse" color-interpolation-filters="sRGB">
<feFlood flood-opacity="0" result="BackgroundImageFix"/>
<feColorMatrix in="SourceAlpha" type="matrix" values="0 0 0 0 0 0 0 0 0 0 0 0 0 0 0 0 0 0 127 0" result="hardAlpha"/>
<feOffset dy="4"/>
<feGaussianBlur stdDeviation="2"/>
<feComposite in2="hardAlpha" operator="out"/>
<feColorMatrix type="matrix" values="0 0 0 0 0 0 0 0 0 0 0 0 0 0 0 0 0 0 0.25 0"/>
<feBlend mode="normal" in2="BackgroundImageFix" result="effect1_dropShadow_80_2561"/>
<feBlend mode="normal" in="SourceGraphic" in2="effect1_dropShadow_80_2561" result="shape"/>
</filter>
<clipPath id="clip0_80_2561">
<rect width="167" height="177" fill="white" transform="translate(74 56)"/>
</clipPath>
</defs>
</svg>
