<svg width="25" height="25" viewBox="0 0 25 25" fill="none" xmlns="http://www.w3.org/2000/svg">
<path fill-rule="evenodd" clip-rule="evenodd" d="M21.2609 10.2714C21.204 10.2678 21.1421 10.2678 21.0779 10.2679H21.0619H18.5432C16.4673 10.2679 14.6909 11.9148 14.6909 14.0625C14.6909 16.2102 16.4673 17.8572 18.5432 17.8572H21.0619H21.0779C21.1421 17.8572 21.204 17.8572 21.2609 17.8535C22.1041 17.7999 22.8499 17.1349 22.9126 16.2059C22.9167 16.145 22.9166 16.0794 22.9166 16.0185V16.002V12.123V12.1065C22.9166 12.0456 22.9167 11.98 22.9126 11.9191C22.8499 10.9902 22.1041 10.3251 21.2609 10.2714ZM18.32 15.0744C18.8544 15.0744 19.2877 14.6214 19.2877 14.0625C19.2877 13.5036 18.8544 13.0506 18.32 13.0506C17.7855 13.0506 17.3522 13.5036 17.3522 14.0625C17.3522 14.6214 17.7855 15.0744 18.32 15.0744Z" fill="#21CB51"/>
<path fill-rule="evenodd" clip-rule="evenodd" d="M21.0772 19.375C21.2269 19.3711 21.3402 19.5108 21.2996 19.6561C21.098 20.3771 20.7781 20.9915 20.2648 21.5089C19.5134 22.2661 18.5607 22.6022 17.3835 22.7617C16.2398 22.9167 14.7783 22.9167 12.9331 22.9167H10.8119C8.96668 22.9167 7.5052 22.9167 6.36141 22.7617C5.18427 22.6022 4.23151 22.2661 3.48015 21.5089C2.72877 20.7516 2.39532 19.7914 2.23706 18.605C2.08328 17.4522 2.0833 15.9793 2.08331 14.1196V14.0054C2.08329 12.1457 2.08328 10.6728 2.23706 9.52004C2.39532 8.33366 2.72877 7.37342 3.48015 6.61614C4.23151 5.85887 5.18427 5.52279 6.36141 5.36329C7.50519 5.2083 8.96667 5.20833 10.8119 5.20834H12.9331C14.7783 5.20832 16.2398 5.2083 17.3835 5.36329C18.5607 5.52279 19.5134 5.85887 20.2648 6.61614C20.7781 7.13351 21.098 7.74796 21.2996 8.46888C21.3402 8.61416 21.2269 8.75392 21.0772 8.75L18.5432 8.75001C15.6951 8.75001 13.1849 11.0176 13.1849 14.0625C13.1849 17.1074 15.6951 19.375 18.5432 19.375H21.0772ZM5.84838 9.25596C5.4325 9.25596 5.09537 9.59574 5.09537 10.0149C5.09537 10.4341 5.4325 10.7739 5.84838 10.7739H9.86444C10.2803 10.7739 10.6175 10.4341 10.6175 10.0149C10.6175 9.59574 10.2803 9.25596 9.86444 9.25596H5.84838Z" fill="#21CB51"/>
<path d="M8.10071 4.19207L10.1411 2.68881C11.2369 1.88151 12.7215 1.88151 13.8172 2.68881L15.8683 4.19997C15.0107 4.16661 14.053 4.16665 13.003 4.16667H10.742C9.78253 4.16665 8.9001 4.16663 8.10071 4.19207Z" fill="#21CB51"/>
</svg>
