<svg width="25" height="25" viewBox="0 0 25 25" fill="none" xmlns="http://www.w3.org/2000/svg">
<path d="M5.90584 10.3276L9.09557 6.01197C11.1574 3.22232 12.1883 1.82751 13.1502 2.12226C14.112 2.41702 14.112 4.12776 14.112 7.54925V7.87185C14.112 9.1059 14.112 9.72294 14.5063 10.11L14.5272 10.13C14.93 10.5089 15.5722 10.5089 16.8565 10.5089C19.1679 10.5089 20.3236 10.5089 20.7141 11.2099C20.7206 11.2214 20.7269 11.2332 20.733 11.245C21.1018 11.9568 20.4326 12.8621 19.0943 14.6728L15.9046 18.9884C13.8427 21.778 12.8118 23.1729 11.8499 22.8781C10.8881 22.5833 10.8881 20.8726 10.8881 17.451L10.8882 17.1286C10.8882 15.8944 10.8882 15.2775 10.4938 14.8904L10.473 14.8704C10.0702 14.4915 9.42799 14.4915 8.14357 14.4915C5.83225 14.4915 4.67659 14.4915 4.28602 13.7905C4.27955 13.7789 4.27326 13.7672 4.26716 13.7554C3.89846 13.0436 4.56758 12.1383 5.90584 10.3276Z" fill="url(#paint0_linear_496_1670)"/>
<defs>
<linearGradient id="paint0_linear_496_1670" x1="12.4877" y1="-6.26395" x2="-6.17432" y2="8.19471" gradientUnits="userSpaceOnUse">
<stop stop-color="#33D2FF"/>
<stop offset="0.537474" stop-color="#3D68DE"/>
<stop offset="1" stop-color="#9845E8"/>
</linearGradient>
</defs>
</svg>
