<svg width="25" height="25" viewBox="0 0 25 25" fill="none" xmlns="http://www.w3.org/2000/svg">
<path d="M16.1459 7.81234C16.1459 9.82588 14.5136 11.4582 12.5001 11.4582C10.4865 11.4582 8.85425 9.82588 8.85425 7.81234C8.85425 5.7988 10.4865 4.1665 12.5001 4.1665C14.5136 4.1665 16.1459 5.7988 16.1459 7.81234Z" fill="#939393"/>
<path d="M18.75 17.1873C18.75 19.2009 15.9518 20.8332 12.5 20.8332C9.04822 20.8332 6.25 19.2009 6.25 17.1873C6.25 15.1738 9.04822 13.5415 12.5 13.5415C15.9518 13.5415 18.75 15.1738 18.75 17.1873Z" fill="#939393"/>
<path d="M7.41872 5.2085C7.60357 5.2085 7.78404 5.22663 7.9583 5.26116C7.53376 6.01523 7.29158 6.88566 7.29158 7.81266C7.29158 8.71709 7.52211 9.56768 7.92761 10.3089C7.76288 10.3396 7.59275 10.3556 7.41872 10.3556C5.94536 10.3556 4.75098 9.20341 4.75098 7.78207C4.75098 6.36073 5.94536 5.2085 7.41872 5.2085Z" fill="#939393"/>
<path d="M5.67423 19.7769C5.08265 19.0698 4.68742 18.2019 4.68742 17.1874C4.68742 16.2038 5.05885 15.3582 5.62052 14.6631C3.63648 14.817 2.08325 15.9021 2.08325 17.218C2.08325 18.5461 3.66377 19.6392 5.67423 19.7769Z" fill="#939393"/>
<path d="M17.7082 7.81266C17.7082 8.71709 17.4776 9.56768 17.0721 10.3089C17.2369 10.3396 17.407 10.3556 17.5811 10.3556C19.0544 10.3556 20.2488 9.20341 20.2488 7.78207C20.2488 6.36073 19.0544 5.2085 17.5811 5.2085C17.3962 5.2085 17.2158 5.22663 17.0415 5.26116C17.466 6.01523 17.7082 6.88566 17.7082 7.81266Z" fill="#939393"/>
<path d="M19.3257 19.7769C21.3361 19.6392 22.9166 18.5461 22.9166 17.218C22.9166 15.9021 21.3634 14.817 19.3793 14.6631C19.941 15.3582 20.3125 16.2038 20.3125 17.1874C20.3125 18.2019 19.9172 19.0698 19.3257 19.7769Z" fill="#939393"/>
</svg>
