<svg width="25" height="25" viewBox="0 0 25 25" fill="none" xmlns="http://www.w3.org/2000/svg">
<path d="M2.08325 6.771C2.08325 4.18216 4.18192 2.0835 6.77075 2.0835C9.35959 2.0835 11.4583 4.18216 11.4583 6.771V9.896C11.4583 10.2593 11.4583 10.4409 11.4184 10.59C11.3099 10.9943 10.9941 11.3102 10.5897 11.4186C10.4406 11.4585 10.259 11.4585 9.89575 11.4585H6.77075C4.18192 11.4585 2.08325 9.35983 2.08325 6.771Z" fill="#939393"/>
<path d="M13.5417 15.104C13.5417 14.7408 13.5417 14.5591 13.5816 14.41C13.6901 14.0057 14.0059 13.6898 14.4103 13.5814C14.5594 13.5415 14.741 13.5415 15.1042 13.5415H18.2292C20.8181 13.5415 22.9167 15.6401 22.9167 18.229C22.9167 20.8179 20.8181 22.9165 18.2292 22.9165C15.6404 22.9165 13.5417 20.8179 13.5417 18.229V15.104Z" fill="#939393"/>
<path d="M2.08325 18.229C2.08325 15.6401 4.18192 13.5415 6.77075 13.5415H9.58325C10.2396 13.5415 10.5677 13.5415 10.8184 13.6692C11.0389 13.7816 11.2181 13.9609 11.3305 14.1814C11.4583 14.432 11.4583 14.7601 11.4583 15.4165V18.229C11.4583 20.8179 9.35959 22.9165 6.77075 22.9165C4.18192 22.9165 2.08325 20.8179 2.08325 18.229Z" fill="#939393"/>
<path d="M13.5417 6.771C13.5417 4.18216 15.6404 2.0835 18.2292 2.0835C20.8181 2.0835 22.9167 4.18216 22.9167 6.771C22.9167 9.35983 20.8181 11.4585 18.2292 11.4585H14.881C14.7256 11.4585 14.6478 11.4585 14.5824 11.4511C14.0391 11.39 13.6103 10.9611 13.5491 10.4179C13.5417 10.3524 13.5417 10.2747 13.5417 10.1192V6.771Z" fill="#939393"/>
</svg>
