<svg width="25" height="25" viewBox="0 0 25 25" fill="none" xmlns="http://www.w3.org/2000/svg">
<path d="M21.6978 8.34393L14.8749 2.8856C13.5416 1.8231 11.4583 1.81268 10.1353 2.87518L3.31238 8.34393C2.33321 9.12518 1.73946 10.6877 1.9478 11.9168L3.2603 19.771C3.56238 21.5314 5.1978 22.9168 6.97905 22.9168H18.0208C19.7812 22.9168 21.4478 21.5002 21.7499 19.7606L23.0624 11.9064C23.2499 10.6877 22.6562 9.12518 21.6978 8.34393ZM13.2812 18.7502C13.2812 19.1772 12.927 19.5314 12.4999 19.5314C12.0728 19.5314 11.7187 19.1772 11.7187 18.7502V15.6252C11.7187 15.1981 12.0728 14.8439 12.4999 14.8439C12.927 14.8439 13.2812 15.1981 13.2812 15.6252V18.7502Z" fill="url(#paint0_linear_496_1862)"/>
<defs>
<linearGradient id="paint0_linear_496_1862" x1="12.4859" y1="-6.26394" x2="-6.78497" y2="12.7191" gradientUnits="userSpaceOnUse">
<stop stop-color="#33D2FF"/>
<stop offset="0.537474" stop-color="#3D68DE"/>
<stop offset="1" stop-color="#9845E8"/>
</linearGradient>
</defs>
</svg>
