<svg width="25" height="25" viewBox="0 0 25 25" fill="none" xmlns="http://www.w3.org/2000/svg">
<path fill-rule="evenodd" clip-rule="evenodd" d="M21.2609 10.2716C21.204 10.268 21.1421 10.268 21.0779 10.2681H21.0619H18.5432C16.4673 10.2681 14.6909 11.915 14.6909 14.0627C14.6909 16.2104 16.4673 17.8574 18.5432 17.8574H21.0619H21.0779C21.1421 17.8574 21.204 17.8574 21.2609 17.8537C22.1041 17.8001 22.8499 17.1351 22.9126 16.2061C22.9167 16.1452 22.9166 16.0796 22.9166 16.0187V16.0022V12.1232V12.1067C22.9166 12.0458 22.9167 11.9802 22.9126 11.9193C22.8499 10.9904 22.1041 10.3253 21.2609 10.2716ZM18.32 15.0746C18.8544 15.0746 19.2877 14.6216 19.2877 14.0627C19.2877 13.5039 18.8544 13.0508 18.32 13.0508C17.7855 13.0508 17.3522 13.5039 17.3522 14.0627C17.3522 14.6216 17.7855 15.0746 18.32 15.0746Z" fill="url(#paint0_linear_496_1732)"/>
<path fill-rule="evenodd" clip-rule="evenodd" d="M21.0771 19.3752C21.2268 19.3713 21.3401 19.511 21.2995 19.6563C21.0979 20.3772 20.778 20.9916 20.2647 21.509C19.5134 22.2663 18.5606 22.6024 17.3835 22.7618C16.2397 22.9168 14.7783 22.9168 12.933 22.9168H10.8118C8.96662 22.9168 7.50514 22.9168 6.36135 22.7618C5.18421 22.6024 4.23145 22.2663 3.48009 21.509C2.72871 20.7517 2.39526 19.7915 2.237 18.6052C2.08322 17.4523 2.08324 15.9794 2.08325 14.1197V14.0056C2.08323 12.1459 2.08322 10.673 2.237 9.52021C2.39526 8.33382 2.72871 7.37358 3.48009 6.6163C4.23145 5.85903 5.18421 5.52295 6.36135 5.36345C7.50513 5.20847 8.96661 5.20849 10.8118 5.2085H12.933C14.7783 5.20848 16.2397 5.20847 17.3835 5.36345C18.5606 5.52295 19.5134 5.85903 20.2647 6.6163C20.778 7.13367 21.0979 7.74812 21.2995 8.46904C21.3401 8.61432 21.2268 8.75408 21.0771 8.75016L18.5431 8.75017C15.695 8.75017 13.1848 11.0178 13.1848 14.0627C13.1848 17.1076 15.695 19.3752 18.5431 19.3752H21.0771ZM5.84831 9.25612C5.43244 9.25612 5.0953 9.5959 5.0953 10.015C5.0953 10.4342 5.43244 10.774 5.84831 10.774H9.86438C10.2803 10.774 10.6174 10.4342 10.6174 10.015C10.6174 9.5959 10.2803 9.25612 9.86438 9.25612H5.84831Z" fill="url(#paint1_linear_496_1732)"/>
<path d="M8.10083 4.19223L10.1413 2.68897C11.237 1.88167 12.7216 1.88167 13.8173 2.68897L15.8685 4.20013C15.0109 4.16677 14.0531 4.16681 13.0031 4.16683H10.7421C9.78265 4.16681 8.90023 4.16679 8.10083 4.19223Z" fill="url(#paint2_linear_496_1732)"/>
<defs>
<linearGradient id="paint0_linear_496_1732" x1="18.7977" y1="7.2272" x2="11.785" y2="14.5882" gradientUnits="userSpaceOnUse">
<stop stop-color="#33D2FF"/>
<stop offset="0.537474" stop-color="#3D68DE"/>
<stop offset="1" stop-color="#9845E8"/>
</linearGradient>
<linearGradient id="paint1_linear_496_1732" x1="11.6813" y1="-1.88682" x2="-4.68025" y2="15.3153" gradientUnits="userSpaceOnUse">
<stop stop-color="#33D2FF"/>
<stop offset="0.537474" stop-color="#3D68DE"/>
<stop offset="1" stop-color="#9845E8"/>
</linearGradient>
<linearGradient id="paint2_linear_496_1732" x1="11.9789" y1="1.23541" x2="10.9578" y2="4.86433" gradientUnits="userSpaceOnUse">
<stop stop-color="#33D2FF"/>
<stop offset="0.537474" stop-color="#3D68DE"/>
<stop offset="1" stop-color="#9845E8"/>
</linearGradient>
</defs>
</svg>
