<svg width="217" height="40" viewBox="0 0 217 40" fill="none" xmlns="http://www.w3.org/2000/svg">
<rect x="0.75" y="0.75" width="215.244" height="38.5" rx="11.25" stroke="url(#paint0_linear_496_1698)" stroke-width="1.5"/>
<path d="M55.7326 24.5V15.7727H59.0735C59.7042 15.7727 60.2284 15.8722 60.646 16.071C61.0664 16.267 61.3803 16.5355 61.5877 16.8764C61.798 17.2173 61.9031 17.6037 61.9031 18.0355C61.9031 18.3906 61.8349 18.6946 61.6985 18.9474C61.5622 19.1974 61.3789 19.4006 61.1488 19.5568C60.9187 19.7131 60.6616 19.8253 60.3775 19.8935V19.9787C60.6872 19.9957 60.984 20.0909 61.2681 20.2642C61.5551 20.4347 61.7894 20.6761 61.9713 20.9886C62.1531 21.3011 62.244 21.679 62.244 22.1222C62.244 22.5739 62.1346 22.9801 61.9159 23.3409C61.6971 23.6989 61.3676 23.9815 60.9272 24.1889C60.4869 24.3963 59.9329 24.5 59.2653 24.5H55.7326ZM57.3136 23.179H59.0139C59.5877 23.179 60.0011 23.0696 60.2539 22.8509C60.5096 22.6293 60.6375 22.3452 60.6375 21.9986C60.6375 21.7401 60.5735 21.5071 60.4457 21.2997C60.3178 21.0895 60.136 20.9247 59.9002 20.8054C59.6644 20.6832 59.3832 20.6222 59.0565 20.6222H57.3136V23.179ZM57.3136 19.4844H58.8775C59.1502 19.4844 59.396 19.4347 59.6147 19.3352C59.8335 19.233 60.0053 19.0895 60.1303 18.9048C60.2582 18.7173 60.3221 18.4957 60.3221 18.2401C60.3221 17.902 60.2028 17.6236 59.9642 17.4048C59.7284 17.1861 59.3775 17.0767 58.9116 17.0767H57.3136V19.4844ZM65.4347 24.6321C65.0199 24.6321 64.6463 24.5582 64.3139 24.4105C63.9844 24.2599 63.723 24.0384 63.5299 23.7457C63.3395 23.4531 63.2443 23.0923 63.2443 22.6634C63.2443 22.294 63.3125 21.9886 63.4489 21.7472C63.5852 21.5057 63.7713 21.3125 64.0071 21.1676C64.2429 21.0227 64.5085 20.9134 64.804 20.8395C65.1023 20.7628 65.4105 20.7074 65.7287 20.6733C66.1122 20.6335 66.4233 20.598 66.662 20.5668C66.9006 20.5327 67.0739 20.4815 67.1818 20.4134C67.2926 20.3423 67.348 20.233 67.348 20.0852V20.0597C67.348 19.7386 67.2529 19.4901 67.0625 19.3139C66.8722 19.1378 66.598 19.0497 66.2401 19.0497C65.8622 19.0497 65.5625 19.1321 65.3409 19.2969C65.1222 19.4616 64.9745 19.6562 64.8977 19.8807L63.4574 19.6761C63.571 19.2784 63.7585 18.946 64.0199 18.679C64.2813 18.4091 64.6009 18.2074 64.9787 18.0739C65.3566 17.9375 65.7742 17.8693 66.2316 17.8693C66.5469 17.8693 66.8608 17.9062 67.1733 17.9801C67.4858 18.054 67.7713 18.1761 68.0299 18.3466C68.2884 18.5142 68.4958 18.7429 68.652 19.0327C68.8111 19.3224 68.8906 19.6847 68.8906 20.1193V24.5H67.4077V23.6009H67.3566C67.2628 23.7827 67.1307 23.9531 66.9602 24.1122C66.7926 24.2685 66.581 24.3949 66.3253 24.4915C66.0725 24.5852 65.7756 24.6321 65.4347 24.6321ZM65.8352 23.4986C66.1449 23.4986 66.4134 23.4375 66.6406 23.3153C66.8679 23.1903 67.0426 23.0256 67.1648 22.821C67.2898 22.6165 67.3523 22.3935 67.3523 22.152V21.3807C67.304 21.4205 67.2216 21.4574 67.1051 21.4915C66.9915 21.5256 66.8637 21.5554 66.7216 21.581C66.5796 21.6065 66.4389 21.6293 66.2997 21.6491C66.1605 21.669 66.0398 21.6861 65.9375 21.7003C65.7074 21.7315 65.5014 21.7827 65.3196 21.8537C65.1378 21.9247 64.9943 22.0241 64.8892 22.152C64.7841 22.277 64.7316 22.4389 64.7316 22.6378C64.7316 22.9219 64.8352 23.1364 65.0426 23.2812C65.25 23.4261 65.5142 23.4986 65.8352 23.4986ZM73.2969 24.6278C72.6435 24.6278 72.0824 24.4844 71.6137 24.1974C71.1477 23.9105 70.7884 23.5142 70.5355 23.0085C70.2855 22.5 70.1605 21.9148 70.1605 21.2528C70.1605 20.5881 70.2884 20.0014 70.5441 19.4929C70.7997 18.9815 71.1605 18.5838 71.6264 18.2997C72.0952 18.0128 72.6492 17.8693 73.2884 17.8693C73.8196 17.8693 74.2898 17.9673 74.6989 18.1634C75.1108 18.3565 75.4389 18.6307 75.6833 18.9858C75.9276 19.3381 76.0668 19.75 76.1009 20.2216H74.6264C74.5668 19.9062 74.4247 19.6435 74.2003 19.4332C73.9787 19.2202 73.6818 19.1136 73.3097 19.1136C72.9943 19.1136 72.7174 19.1989 72.4787 19.3693C72.2401 19.5369 72.054 19.7784 71.9205 20.0938C71.7898 20.4091 71.7245 20.7869 71.7245 21.2273C71.7245 21.6733 71.7898 22.0568 71.9205 22.3778C72.0512 22.696 72.2344 22.9418 72.4702 23.1151C72.7088 23.2855 72.9887 23.3707 73.3097 23.3707C73.537 23.3707 73.7401 23.3281 73.9191 23.2429C74.1009 23.1548 74.2529 23.0284 74.375 22.8636C74.4972 22.6989 74.581 22.4986 74.6264 22.2628H76.1009C76.0639 22.7259 75.9276 23.1364 75.6918 23.4943C75.456 23.8494 75.135 24.1278 74.7287 24.3295C74.3225 24.5284 73.8452 24.6278 73.2969 24.6278ZM78.7738 22.446L78.7696 20.5838H79.0167L81.369 17.9545H83.1715L80.2781 21.1761H79.9585L78.7738 22.446ZM77.3676 24.5V15.7727H78.9102V24.5H77.3676ZM81.4755 24.5L79.3448 21.5213L80.3846 20.4347L83.3207 24.5H81.4755ZM90.4446 17.9545V19.1477H86.6818V17.9545H90.4446ZM87.6108 16.3864H89.1534V22.5312C89.1534 22.7386 89.1847 22.8977 89.2472 23.0085C89.3125 23.1165 89.3977 23.1903 89.5029 23.2301C89.608 23.2699 89.7245 23.2898 89.8523 23.2898C89.9489 23.2898 90.037 23.2827 90.1165 23.2685C90.1989 23.2543 90.2614 23.2415 90.304 23.2301L90.5639 24.4361C90.4816 24.4645 90.3637 24.4957 90.2102 24.5298C90.0597 24.5639 89.875 24.5838 89.6563 24.5895C89.2699 24.6009 88.9219 24.5426 88.6122 24.4148C88.3026 24.2841 88.0568 24.0824 87.875 23.8097C87.696 23.5369 87.608 23.196 87.6108 22.7869V16.3864ZM94.5196 24.6278C93.8803 24.6278 93.3264 24.4872 92.8576 24.206C92.3889 23.9247 92.0252 23.5312 91.7667 23.0256C91.511 22.5199 91.3832 21.929 91.3832 21.2528C91.3832 20.5767 91.511 19.9844 91.7667 19.4759C92.0252 18.9673 92.3889 18.5724 92.8576 18.2912C93.3264 18.0099 93.8803 17.8693 94.5196 17.8693C95.1588 17.8693 95.7127 18.0099 96.1815 18.2912C96.6502 18.5724 97.0125 18.9673 97.2681 19.4759C97.5267 19.9844 97.6559 20.5767 97.6559 21.2528C97.6559 21.929 97.5267 22.5199 97.2681 23.0256C97.0125 23.5312 96.6502 23.9247 96.1815 24.206C95.7127 24.4872 95.1588 24.6278 94.5196 24.6278ZM94.5281 23.392C94.8747 23.392 95.1644 23.2969 95.3974 23.1065C95.6303 22.9134 95.8036 22.6548 95.9173 22.331C96.0338 22.0071 96.092 21.6463 96.092 21.2486C96.092 20.848 96.0338 20.4858 95.9173 20.1619C95.8036 19.8352 95.6303 19.5753 95.3974 19.3821C95.1644 19.1889 94.8747 19.0923 94.5281 19.0923C94.173 19.0923 93.8775 19.1889 93.6417 19.3821C93.4088 19.5753 93.234 19.8352 93.1176 20.1619C93.0039 20.4858 92.9471 20.848 92.9471 21.2486C92.9471 21.6463 93.0039 22.0071 93.1176 22.331C93.234 22.6548 93.4088 22.9134 93.6417 23.1065C93.8775 23.2969 94.173 23.392 94.5281 23.392ZM102.01 15.7727H103.945L106.536 22.0966H106.638L109.229 15.7727H111.163V24.5H109.646V18.5043H109.565L107.153 24.4744H106.02L103.608 18.4915H103.527V24.5H102.01V15.7727ZM114.7 24.6321C114.286 24.6321 113.912 24.5582 113.58 24.4105C113.25 24.2599 112.989 24.0384 112.795 23.7457C112.605 23.4531 112.51 23.0923 112.51 22.6634C112.51 22.294 112.578 21.9886 112.715 21.7472C112.851 21.5057 113.037 21.3125 113.273 21.1676C113.509 21.0227 113.774 20.9134 114.07 20.8395C114.368 20.7628 114.676 20.7074 114.994 20.6733C115.378 20.6335 115.689 20.598 115.928 20.5668C116.166 20.5327 116.34 20.4815 116.447 20.4134C116.558 20.3423 116.614 20.233 116.614 20.0852V20.0597C116.614 19.7386 116.518 19.4901 116.328 19.3139C116.138 19.1378 115.864 19.0497 115.506 19.0497C115.128 19.0497 114.828 19.1321 114.607 19.2969C114.388 19.4616 114.24 19.6562 114.163 19.8807L112.723 19.6761C112.837 19.2784 113.024 18.946 113.286 18.679C113.547 18.4091 113.866 18.2074 114.244 18.0739C114.622 17.9375 115.04 17.8693 115.497 17.8693C115.813 17.8693 116.126 17.9062 116.439 17.9801C116.751 18.054 117.037 18.1761 117.295 18.3466C117.554 18.5142 117.761 18.7429 117.918 19.0327C118.077 19.3224 118.156 19.6847 118.156 20.1193V24.5H116.673V23.6009H116.622C116.528 23.7827 116.396 23.9531 116.226 24.1122C116.058 24.2685 115.847 24.3949 115.591 24.4915C115.338 24.5852 115.041 24.6321 114.7 24.6321ZM115.101 23.4986C115.411 23.4986 115.679 23.4375 115.906 23.3153C116.134 23.1903 116.308 23.0256 116.43 22.821C116.555 22.6165 116.618 22.3935 116.618 22.152V21.3807C116.57 21.4205 116.487 21.4574 116.371 21.4915C116.257 21.5256 116.129 21.5554 115.987 21.581C115.845 21.6065 115.705 21.6293 115.565 21.6491C115.426 21.669 115.305 21.6861 115.203 21.7003C114.973 21.7315 114.767 21.7827 114.585 21.8537C114.403 21.9247 114.26 22.0241 114.155 22.152C114.05 22.277 113.997 22.4389 113.997 22.6378C113.997 22.9219 114.101 23.1364 114.308 23.2812C114.516 23.4261 114.78 23.4986 115.101 23.4986ZM119.707 24.5V17.9545H121.25V24.5H119.707ZM120.483 17.0256C120.239 17.0256 120.028 16.9446 119.852 16.7827C119.676 16.6179 119.588 16.4205 119.588 16.1903C119.588 15.9574 119.676 15.7599 119.852 15.598C120.028 15.4332 120.239 15.3509 120.483 15.3509C120.73 15.3509 120.94 15.4332 121.114 15.598C121.29 15.7599 121.378 15.9574 121.378 16.1903C121.378 16.4205 121.29 16.6179 121.114 16.7827C120.94 16.9446 120.73 17.0256 120.483 17.0256ZM124.379 20.6648V24.5H122.836V17.9545H124.311V19.0668H124.387C124.538 18.7003 124.778 18.4091 125.108 18.1932C125.44 17.9773 125.851 17.8693 126.339 17.8693C126.791 17.8693 127.184 17.9659 127.52 18.1591C127.858 18.3523 128.119 18.6321 128.304 18.9986C128.491 19.3651 128.583 19.8097 128.581 20.3324V24.5H127.038V20.571C127.038 20.1335 126.924 19.7912 126.697 19.544C126.473 19.2969 126.162 19.1733 125.764 19.1733C125.494 19.1733 125.254 19.233 125.044 19.3523C124.836 19.4687 124.673 19.6378 124.554 19.8594C124.437 20.081 124.379 20.3494 124.379 20.6648ZM133.194 24.5V15.7727H136.466C137.137 15.7727 137.699 15.8977 138.154 16.1477C138.611 16.3977 138.956 16.7415 139.189 17.179C139.425 17.6136 139.543 18.108 139.543 18.6619C139.543 19.2216 139.425 19.7187 139.189 20.1534C138.954 20.5881 138.605 20.9304 138.145 21.1804C137.685 21.4276 137.118 21.5511 136.445 21.5511H134.276V20.2514H136.232C136.624 20.2514 136.945 20.1832 137.195 20.0469C137.445 19.9105 137.63 19.723 137.749 19.4844C137.871 19.2457 137.932 18.9716 137.932 18.6619C137.932 18.3523 137.871 18.0795 137.749 17.8438C137.63 17.608 137.444 17.4247 137.191 17.294C136.941 17.1605 136.618 17.0938 136.223 17.0938H134.775V24.5H133.194ZM142.614 24.6321C142.2 24.6321 141.826 24.5582 141.494 24.4105C141.164 24.2599 140.903 24.0384 140.71 23.7457C140.519 23.4531 140.424 23.0923 140.424 22.6634C140.424 22.294 140.492 21.9886 140.629 21.7472C140.765 21.5057 140.951 21.3125 141.187 21.1676C141.423 21.0227 141.688 20.9134 141.984 20.8395C142.282 20.7628 142.59 20.7074 142.908 20.6733C143.292 20.6335 143.603 20.598 143.842 20.5668C144.08 20.5327 144.254 20.4815 144.362 20.4134C144.472 20.3423 144.528 20.233 144.528 20.0852V20.0597C144.528 19.7386 144.433 19.4901 144.242 19.3139C144.052 19.1378 143.778 19.0497 143.42 19.0497C143.042 19.0497 142.742 19.1321 142.521 19.2969C142.302 19.4616 142.154 19.6562 142.077 19.8807L140.637 19.6761C140.751 19.2784 140.938 18.946 141.2 18.679C141.461 18.4091 141.781 18.2074 142.158 18.0739C142.536 17.9375 142.954 17.8693 143.411 17.8693C143.727 17.8693 144.041 17.9062 144.353 17.9801C144.666 18.054 144.951 18.1761 145.21 18.3466C145.468 18.5142 145.675 18.7429 145.832 19.0327C145.991 19.3224 146.07 19.6847 146.07 20.1193V24.5H144.587V23.6009H144.536C144.442 23.7827 144.31 23.9531 144.14 24.1122C143.972 24.2685 143.761 24.3949 143.505 24.4915C143.252 24.5852 142.955 24.6321 142.614 24.6321ZM143.015 23.4986C143.325 23.4986 143.593 23.4375 143.82 23.3153C144.048 23.1903 144.222 23.0256 144.344 22.821C144.469 22.6165 144.532 22.3935 144.532 22.152V21.3807C144.484 21.4205 144.401 21.4574 144.285 21.4915C144.171 21.5256 144.043 21.5554 143.901 21.581C143.759 21.6065 143.619 21.6293 143.479 21.6491C143.34 21.669 143.219 21.6861 143.117 21.7003C142.887 21.7315 142.681 21.7827 142.499 21.8537C142.317 21.9247 142.174 22.0241 142.069 22.152C141.964 22.277 141.911 22.4389 141.911 22.6378C141.911 22.9219 142.015 23.1364 142.222 23.2812C142.43 23.4261 142.694 23.4986 143.015 23.4986ZM150.468 27.0909C149.914 27.0909 149.438 27.0156 149.041 26.8651C148.643 26.7173 148.323 26.5185 148.082 26.2685C147.84 26.0185 147.673 25.7415 147.579 25.4375L148.968 25.1009C149.031 25.2287 149.121 25.3551 149.241 25.4801C149.36 25.608 149.521 25.7131 149.722 25.7955C149.927 25.8807 150.184 25.9233 150.494 25.9233C150.931 25.9233 151.293 25.8168 151.58 25.6037C151.867 25.3935 152.011 25.0469 152.011 24.5639V23.3239H151.934C151.854 23.483 151.738 23.6463 151.585 23.8139C151.434 23.9815 151.234 24.1222 150.984 24.2358C150.737 24.3494 150.425 24.4062 150.05 24.4062C149.548 24.4062 149.092 24.2884 148.683 24.0526C148.276 23.8139 147.952 23.4588 147.711 22.9872C147.472 22.5128 147.353 21.919 147.353 21.206C147.353 20.4872 147.472 19.8807 147.711 19.3864C147.952 18.8892 148.278 18.5128 148.687 18.2571C149.096 17.9986 149.552 17.8693 150.055 17.8693C150.438 17.8693 150.754 17.9347 151.001 18.0653C151.251 18.1932 151.45 18.348 151.597 18.5298C151.745 18.7088 151.857 18.8778 151.934 19.0369H152.019V17.9545H153.541V24.6065C153.541 25.1662 153.407 25.6293 153.14 25.9957C152.873 26.3622 152.508 26.6364 152.045 26.8182C151.582 27 151.056 27.0909 150.468 27.0909ZM150.481 23.196C150.808 23.196 151.086 23.1165 151.316 22.9574C151.546 22.7983 151.721 22.5696 151.84 22.2713C151.96 21.973 152.019 21.6151 152.019 21.1974C152.019 20.7855 151.96 20.4247 151.84 20.1151C151.724 19.8054 151.55 19.5653 151.32 19.3949C151.093 19.2216 150.813 19.1349 150.481 19.1349C150.137 19.1349 149.85 19.2244 149.62 19.4034C149.39 19.5824 149.217 19.8281 149.1 20.1406C148.984 20.4503 148.925 20.8026 148.925 21.1974C148.925 21.598 148.984 21.9489 149.1 22.25C149.219 22.5483 149.394 22.7812 149.624 22.9489C149.857 23.1136 150.143 23.196 150.481 23.196ZM158.019 24.6278C157.363 24.6278 156.796 24.4915 156.319 24.2188C155.844 23.9432 155.479 23.554 155.224 23.0511C154.968 22.5455 154.84 21.9503 154.84 21.2656C154.84 20.5923 154.968 20.0014 155.224 19.4929C155.482 18.9815 155.843 18.5838 156.306 18.2997C156.769 18.0128 157.313 17.8693 157.938 17.8693C158.342 17.8693 158.722 17.9347 159.08 18.0653C159.441 18.1932 159.759 18.392 160.035 18.6619C160.313 18.9318 160.532 19.2756 160.691 19.6932C160.85 20.108 160.93 20.6023 160.93 21.1761V21.6491H155.565V20.6094H159.451C159.448 20.3139 159.384 20.0511 159.259 19.821C159.134 19.5881 158.96 19.4048 158.735 19.2713C158.514 19.1378 158.255 19.071 157.96 19.071C157.644 19.071 157.367 19.1477 157.129 19.3011C156.89 19.4517 156.704 19.6506 156.57 19.8977C156.44 20.142 156.373 20.4105 156.37 20.7031V21.6108C156.37 21.9915 156.44 22.3182 156.579 22.5909C156.718 22.8608 156.913 23.0682 157.163 23.2131C157.413 23.3551 157.705 23.4261 158.041 23.4261C158.265 23.4261 158.468 23.3949 158.65 23.3324C158.832 23.267 158.989 23.1719 159.123 23.0469C159.256 22.9219 159.357 22.767 159.425 22.5824L160.866 22.7443C160.775 23.125 160.602 23.4574 160.346 23.7415C160.093 24.0227 159.769 24.2415 159.374 24.3977C158.979 24.5511 158.528 24.6278 158.019 24.6278Z" fill="url(#paint1_linear_496_1698)"/>
<defs>
<linearGradient id="paint0_linear_496_1698" x1="108.211" y1="-16.0271" x2="94.602" y2="55.388" gradientUnits="userSpaceOnUse">
<stop stop-color="#33D2FF"/>
<stop offset="0.537474" stop-color="#3D68DE"/>
<stop offset="1" stop-color="#9845E8"/>
</linearGradient>
<linearGradient id="paint1_linear_496_1698" x1="108.292" y1="6.48985" x2="104.358" y2="33.6734" gradientUnits="userSpaceOnUse">
<stop stop-color="#33D2FF"/>
<stop offset="0.537474" stop-color="#3D68DE"/>
<stop offset="1" stop-color="#9845E8"/>
</linearGradient>
</defs>
</svg>
