<svg width="217" height="40" viewBox="0 0 217 40" fill="none" xmlns="http://www.w3.org/2000/svg">
<rect x="0.75" y="0.75" width="215.244" height="38.5" rx="11.25" stroke="url(#paint0_linear_496_1757)" stroke-width="1.5"/>
<path d="M41.7326 24.5V15.7727H45.0735C45.7042 15.7727 46.2284 15.8722 46.646 16.071C47.0664 16.267 47.3803 16.5355 47.5877 16.8764C47.798 17.2173 47.9031 17.6037 47.9031 18.0355C47.9031 18.3906 47.8349 18.6946 47.6985 18.9474C47.5622 19.1974 47.3789 19.4006 47.1488 19.5568C46.9187 19.7131 46.6616 19.8253 46.3775 19.8935V19.9787C46.6872 19.9957 46.984 20.0909 47.2681 20.2642C47.5551 20.4347 47.7894 20.6761 47.9713 20.9886C48.1531 21.3011 48.244 21.679 48.244 22.1222C48.244 22.5739 48.1346 22.9801 47.9159 23.3409C47.6971 23.6989 47.3676 23.9815 46.9272 24.1889C46.4869 24.3963 45.9329 24.5 45.2653 24.5H41.7326ZM43.3136 23.179H45.0139C45.5877 23.179 46.0011 23.0696 46.2539 22.8509C46.5096 22.6293 46.6375 22.3452 46.6375 21.9986C46.6375 21.7401 46.5735 21.5071 46.4457 21.2997C46.3178 21.0895 46.136 20.9247 45.9002 20.8054C45.6644 20.6832 45.3832 20.6222 45.0565 20.6222H43.3136V23.179ZM43.3136 19.4844H44.8775C45.1502 19.4844 45.396 19.4347 45.6147 19.3352C45.8335 19.233 46.0053 19.0895 46.1303 18.9048C46.2582 18.7173 46.3221 18.4957 46.3221 18.2401C46.3221 17.902 46.2028 17.6236 45.9642 17.4048C45.7284 17.1861 45.3775 17.0767 44.9116 17.0767H43.3136V19.4844ZM52.4489 24.6278C51.7926 24.6278 51.2259 24.4915 50.7486 24.2188C50.2742 23.9432 49.9091 23.554 49.6534 23.0511C49.3977 22.5455 49.2699 21.9503 49.2699 21.2656C49.2699 20.5923 49.3977 20.0014 49.6534 19.4929C49.912 18.9815 50.2727 18.5838 50.7358 18.2997C51.1989 18.0128 51.7429 17.8693 52.3679 17.8693C52.7713 17.8693 53.152 17.9347 53.51 18.0653C53.8708 18.1932 54.1889 18.392 54.4645 18.6619C54.7429 18.9318 54.9617 19.2756 55.1208 19.6932C55.2799 20.108 55.3594 20.6023 55.3594 21.1761V21.6491H49.9943V20.6094H53.8807C53.8779 20.3139 53.8139 20.0511 53.6889 19.821C53.5639 19.5881 53.3892 19.4048 53.1648 19.2713C52.9432 19.1378 52.6847 19.071 52.3892 19.071C52.0739 19.071 51.7969 19.1477 51.5583 19.3011C51.3196 19.4517 51.1335 19.6506 51 19.8977C50.8693 20.142 50.8026 20.4105 50.7997 20.7031V21.6108C50.7997 21.9915 50.8693 22.3182 51.0085 22.5909C51.1477 22.8608 51.3424 23.0682 51.5924 23.2131C51.8424 23.3551 52.135 23.4261 52.4702 23.4261C52.6946 23.4261 52.8977 23.3949 53.0796 23.3324C53.2614 23.267 53.4191 23.1719 53.5526 23.0469C53.6861 22.9219 53.787 22.767 53.8551 22.5824L55.2955 22.7443C55.2046 23.125 55.0313 23.4574 54.7756 23.7415C54.5227 24.0227 54.1989 24.2415 53.804 24.3977C53.4091 24.5511 52.9574 24.6278 52.4489 24.6278ZM56.6644 26.9545V17.9545H58.1815V19.0369H58.271C58.3505 18.8778 58.4627 18.7088 58.6076 18.5298C58.7525 18.348 58.9485 18.1932 59.1957 18.0653C59.4428 17.9347 59.7582 17.8693 60.1417 17.8693C60.6474 17.8693 61.1034 17.9986 61.5096 18.2571C61.9187 18.5128 62.2426 18.892 62.4812 19.3949C62.7227 19.8949 62.8434 20.5085 62.8434 21.2358C62.8434 21.9545 62.7255 22.5653 62.4897 23.0682C62.2539 23.571 61.9329 23.9545 61.5267 24.2188C61.1204 24.483 60.6602 24.6151 60.146 24.6151C59.771 24.6151 59.4599 24.5526 59.2127 24.4276C58.9656 24.3026 58.7667 24.152 58.6161 23.9759C58.4684 23.7969 58.3534 23.6278 58.271 23.4688H58.2071V26.9545H56.6644ZM58.1772 21.2273C58.1772 21.6506 58.2369 22.0213 58.3562 22.3395C58.4784 22.6577 58.6531 22.9062 58.8803 23.0852C59.1105 23.2614 59.3889 23.3494 59.7156 23.3494C60.0565 23.3494 60.342 23.2585 60.5721 23.0767C60.8022 22.892 60.9755 22.6406 61.092 22.3224C61.2113 22.0014 61.271 21.6364 61.271 21.2273C61.271 20.821 61.2127 20.4602 61.0963 20.1449C60.9798 19.8295 60.8065 19.5824 60.5764 19.4034C60.3463 19.2244 60.0593 19.1349 59.7156 19.1349C59.386 19.1349 59.1062 19.2216 58.8761 19.3949C58.646 19.5682 58.4713 19.8111 58.3519 20.1236C58.2355 20.4361 58.1772 20.804 58.1772 21.2273ZM68.6602 20.5881V21.8537H65.1744V20.5881H68.6602ZM65.6517 17.9545V24.5H64.1644V17.9545H65.6517ZM69.6701 17.9545V24.5H68.1872V17.9545H69.6701ZM71.9553 26.9545C71.7451 26.9545 71.5504 26.9375 71.3715 26.9034C71.1953 26.8722 71.0547 26.8352 70.9496 26.7926L71.3076 25.5909C71.532 25.6563 71.7323 25.6875 71.9084 25.6847C72.0845 25.6818 72.2394 25.6264 72.3729 25.5185C72.5093 25.4134 72.6243 25.2372 72.7181 24.9901L72.8502 24.6364L70.4766 17.9545H72.1129L73.6215 22.8977H73.6897L75.2024 17.9545H76.8431L74.2223 25.2926C74.1002 25.6392 73.9382 25.9361 73.7365 26.1832C73.5348 26.4332 73.2877 26.6236 72.9951 26.7543C72.7053 26.8878 72.3587 26.9545 71.9553 26.9545ZM77.5526 19.2202V17.9545H83.2799V19.2202H81.162V24.5H79.6705V19.2202H77.5526ZM85.5522 20.0852H87.4826C88.3178 20.0852 88.9642 20.2884 89.4215 20.6946C89.8789 21.1009 90.109 21.6335 90.1119 22.2926C90.109 22.7216 90.0039 23.1023 89.7965 23.4347C89.592 23.767 89.2937 24.0284 88.9017 24.2188C88.5125 24.4062 88.0394 24.5 87.4826 24.5H84.5082V17.9545H85.9954V23.2344H87.4826C87.8178 23.2344 88.0934 23.1491 88.3093 22.9787C88.5252 22.8054 88.6332 22.5838 88.6332 22.3139C88.6332 22.0298 88.5252 21.7983 88.3093 21.6193C88.0934 21.4403 87.8178 21.3509 87.4826 21.3509H85.5522V20.0852ZM94.2891 24.6278C93.6357 24.6278 93.0746 24.4844 92.6058 24.1974C92.1399 23.9105 91.7806 23.5142 91.5277 23.0085C91.2777 22.5 91.1527 21.9148 91.1527 21.2528C91.1527 20.5881 91.2806 20.0014 91.5362 19.4929C91.7919 18.9815 92.1527 18.5838 92.6186 18.2997C93.0874 18.0128 93.6414 17.8693 94.2806 17.8693C94.8118 17.8693 95.282 17.9673 95.6911 18.1634C96.103 18.3565 96.4311 18.6307 96.6754 18.9858C96.9198 19.3381 97.059 19.75 97.0931 20.2216H95.6186C95.559 19.9062 95.4169 19.6435 95.1925 19.4332C94.9709 19.2202 94.674 19.1136 94.3019 19.1136C93.9865 19.1136 93.7095 19.1989 93.4709 19.3693C93.2323 19.5369 93.0462 19.7784 92.9127 20.0938C92.782 20.4091 92.7166 20.7869 92.7166 21.2273C92.7166 21.6733 92.782 22.0568 92.9127 22.3778C93.0433 22.696 93.2266 22.9418 93.4624 23.1151C93.701 23.2855 93.9808 23.3707 94.3019 23.3707C94.5291 23.3707 94.7323 23.3281 94.9112 23.2429C95.0931 23.1548 95.2451 23.0284 95.3672 22.8636C95.4894 22.6989 95.5732 22.4986 95.6186 22.2628H97.0931C97.0561 22.7259 96.9198 23.1364 96.684 23.4943C96.4482 23.8494 96.1272 24.1278 95.7209 24.3295C95.3147 24.5284 94.8374 24.6278 94.2891 24.6278ZM102.229 24.5V19.2074H100.831C100.476 19.2074 100.204 19.2898 100.013 19.4545C99.8228 19.6193 99.7291 19.8239 99.7319 20.0682C99.7291 20.3125 99.8186 20.5142 100 20.6733C100.182 20.8324 100.442 20.9119 100.78 20.9119H102.715V22.0369H100.78C100.257 22.0369 99.8058 21.9545 99.4251 21.7898C99.0444 21.625 98.7518 21.392 98.5473 21.0909C98.3427 20.7898 98.2404 20.4375 98.2404 20.0341C98.2404 19.6136 98.3441 19.2486 98.5515 18.9389C98.7617 18.6264 99.06 18.3849 99.4464 18.2145C99.8356 18.0412 100.297 17.9545 100.831 17.9545H103.674V24.5H102.229ZM98.0018 24.5L99.8299 21.142H101.351L99.5188 24.5H98.0018ZM112.699 20.5881V21.8537H109.213V20.5881H112.699ZM109.691 17.9545V24.5H108.204V17.9545H109.691ZM113.709 17.9545V24.5H112.226V17.9545H113.709ZM117.153 24.6321C116.739 24.6321 116.365 24.5582 116.033 24.4105C115.703 24.2599 115.442 24.0384 115.249 23.7457C115.058 23.4531 114.963 23.0923 114.963 22.6634C114.963 22.294 115.031 21.9886 115.168 21.7472C115.304 21.5057 115.49 21.3125 115.726 21.1676C115.962 21.0227 116.227 20.9134 116.523 20.8395C116.821 20.7628 117.129 20.7074 117.447 20.6733C117.831 20.6335 118.142 20.598 118.381 20.5668C118.619 20.5327 118.793 20.4815 118.901 20.4134C119.011 20.3423 119.067 20.233 119.067 20.0852V20.0597C119.067 19.7386 118.972 19.4901 118.781 19.3139C118.591 19.1378 118.317 19.0497 117.959 19.0497C117.581 19.0497 117.281 19.1321 117.06 19.2969C116.841 19.4616 116.693 19.6562 116.616 19.8807L115.176 19.6761C115.29 19.2784 115.477 18.946 115.739 18.679C116 18.4091 116.32 18.2074 116.697 18.0739C117.075 17.9375 117.493 17.8693 117.95 17.8693C118.266 17.8693 118.58 17.9062 118.892 17.9801C119.205 18.054 119.49 18.1761 119.749 18.3466C120.007 18.5142 120.215 18.7429 120.371 19.0327C120.53 19.3224 120.609 19.6847 120.609 20.1193V24.5H119.126V23.6009H119.075C118.982 23.7827 118.849 23.9531 118.679 24.1122C118.511 24.2685 118.3 24.3949 118.044 24.4915C117.791 24.5852 117.494 24.6321 117.153 24.6321ZM117.554 23.4986C117.864 23.4986 118.132 23.4375 118.359 23.3153C118.587 23.1903 118.761 23.0256 118.884 22.821C119.009 22.6165 119.071 22.3935 119.071 22.152V21.3807C119.023 21.4205 118.94 21.4574 118.824 21.4915C118.71 21.5256 118.582 21.5554 118.44 21.581C118.298 21.6065 118.158 21.6293 118.018 21.6491C117.879 21.669 117.759 21.6861 117.656 21.7003C117.426 21.7315 117.22 21.7827 117.038 21.8537C116.857 21.9247 116.713 22.0241 116.608 22.152C116.503 22.277 116.45 22.4389 116.45 22.6378C116.45 22.9219 116.554 23.1364 116.761 23.2812C116.969 23.4261 117.233 23.4986 117.554 23.4986ZM130.817 15.7727V17.098H126.786V24.5H125.205V15.7727H130.817ZM131.635 24.5L131.626 23.2301H131.852C132.022 23.2301 132.166 23.1918 132.282 23.1151C132.399 23.0384 132.495 22.9105 132.572 22.7315C132.649 22.5497 132.708 22.3054 132.751 21.9986C132.794 21.6918 132.824 21.3097 132.841 20.8523L132.956 17.9545H137.728V24.5H136.237V19.2202H134.358L134.255 21.3295C134.23 21.875 134.169 22.348 134.072 22.7486C133.978 23.1463 133.845 23.4744 133.672 23.733C133.501 23.9915 133.287 24.1847 133.028 24.3125C132.77 24.4375 132.464 24.5 132.112 24.5H131.635ZM141.165 24.6321C140.75 24.6321 140.377 24.5582 140.044 24.4105C139.715 24.2599 139.454 24.0384 139.26 23.7457C139.07 23.4531 138.975 23.0923 138.975 22.6634C138.975 22.294 139.043 21.9886 139.179 21.7472C139.316 21.5057 139.502 21.3125 139.738 21.1676C139.973 21.0227 140.239 20.9134 140.534 20.8395C140.833 20.7628 141.141 20.7074 141.459 20.6733C141.843 20.6335 142.154 20.598 142.392 20.5668C142.631 20.5327 142.804 20.4815 142.912 20.4134C143.023 20.3423 143.079 20.233 143.079 20.0852V20.0597C143.079 19.7386 142.983 19.4901 142.793 19.3139C142.603 19.1378 142.329 19.0497 141.971 19.0497C141.593 19.0497 141.293 19.1321 141.071 19.2969C140.853 19.4616 140.705 19.6562 140.628 19.8807L139.188 19.6761C139.302 19.2784 139.489 18.946 139.75 18.679C140.012 18.4091 140.331 18.2074 140.709 18.0739C141.087 17.9375 141.505 17.8693 141.962 17.8693C142.277 17.8693 142.591 17.9062 142.904 17.9801C143.216 18.054 143.502 18.1761 143.76 18.3466C144.019 18.5142 144.226 18.7429 144.382 19.0327C144.542 19.3224 144.621 19.6847 144.621 20.1193V24.5H143.138V23.6009H143.087C142.993 23.7827 142.861 23.9531 142.691 24.1122C142.523 24.2685 142.311 24.3949 142.056 24.4915C141.803 24.5852 141.506 24.6321 141.165 24.6321ZM141.566 23.4986C141.875 23.4986 142.144 23.4375 142.371 23.3153C142.598 23.1903 142.773 23.0256 142.895 22.821C143.02 22.6165 143.083 22.3935 143.083 22.152V21.3807C143.034 21.4205 142.952 21.4574 142.836 21.4915C142.722 21.5256 142.594 21.5554 142.452 21.581C142.31 21.6065 142.169 21.6293 142.03 21.6491C141.891 21.669 141.77 21.6861 141.668 21.7003C141.438 21.7315 141.232 21.7827 141.05 21.8537C140.868 21.9247 140.725 22.0241 140.62 22.152C140.515 22.277 140.462 22.4389 140.462 22.6378C140.462 22.9219 140.566 23.1364 140.773 23.2812C140.98 23.4261 141.245 23.4986 141.566 23.4986ZM146.172 24.5V17.9545H148.921C149.696 17.9545 150.309 18.1094 150.757 18.419C151.209 18.7287 151.435 19.1605 151.435 19.7145C151.435 20.081 151.307 20.3807 151.052 20.6136C150.799 20.8437 150.454 20.9986 150.016 21.0781C150.36 21.1065 150.661 21.1932 150.919 21.3381C151.181 21.483 151.385 21.6733 151.533 21.9091C151.681 22.1449 151.755 22.4162 151.755 22.723C151.755 23.0838 151.659 23.3977 151.469 23.6648C151.282 23.929 151.007 24.1349 150.647 24.2827C150.289 24.4276 149.854 24.5 149.343 24.5H146.172ZM147.617 23.2855H149.343C149.627 23.2855 149.85 23.2187 150.012 23.0852C150.174 22.9489 150.255 22.7642 150.255 22.5312C150.255 22.2614 150.174 22.0497 150.012 21.8963C149.85 21.7401 149.627 21.6619 149.343 21.6619H147.617V23.2855ZM147.617 20.6648H148.951C149.161 20.6648 149.341 20.6349 149.492 20.5753C149.642 20.5128 149.757 20.4261 149.837 20.3153C149.917 20.2017 149.956 20.0668 149.956 19.9105C149.956 19.6861 149.864 19.5099 149.679 19.3821C149.498 19.2543 149.245 19.1903 148.921 19.1903H147.617V20.6648ZM157.523 20.5881V21.8537H154.038V20.5881H157.523ZM154.515 17.9545V24.5H153.028V17.9545H154.515ZM158.533 17.9545V24.5H157.05V17.9545H158.533ZM160.819 26.9545C160.608 26.9545 160.414 26.9375 160.235 26.9034C160.059 26.8722 159.918 26.8352 159.813 26.7926L160.171 25.5909C160.395 25.6563 160.596 25.6875 160.772 25.6847C160.948 25.6818 161.103 25.6264 161.236 25.5185C161.373 25.4134 161.488 25.2372 161.581 24.9901L161.713 24.6364L159.34 17.9545H160.976L162.485 22.8977H162.553L164.066 17.9545H165.706L163.086 25.2926C162.963 25.6392 162.802 25.9361 162.6 26.1832C162.398 26.4332 162.151 26.6236 161.858 26.7543C161.569 26.8878 161.222 26.9545 160.819 26.9545ZM170.23 20.6349V21.9048H166.706V20.6349H170.23ZM167.929 17.9545V24.5H166.382V17.9545H167.929ZM172.207 24.6278C171.576 24.6278 171.029 24.4844 170.566 24.1974C170.106 23.9105 169.75 23.5128 169.497 23.0043C169.244 22.4957 169.118 21.9077 169.118 21.2401C169.118 20.5724 169.244 19.9858 169.497 19.4801C169.75 18.9744 170.106 18.5795 170.566 18.2955C171.029 18.0114 171.576 17.8693 172.207 17.8693C172.835 17.8693 173.379 18.0114 173.839 18.2955C174.302 18.5795 174.66 18.9744 174.913 19.4801C175.169 19.9858 175.297 20.5724 175.297 21.2401C175.297 21.9077 175.169 22.4957 174.913 23.0043C174.66 23.5128 174.302 23.9105 173.839 24.1974C173.379 24.4844 172.835 24.6278 172.207 24.6278ZM172.207 23.3494C172.579 23.3494 172.883 23.2557 173.119 23.0682C173.355 22.8807 173.528 22.6278 173.639 22.3097C173.75 21.9915 173.805 21.6349 173.805 21.2401C173.805 20.8452 173.75 20.4886 173.639 20.1705C173.528 19.8523 173.355 19.6009 173.119 19.4162C172.883 19.2287 172.579 19.1349 172.207 19.1349C171.832 19.1349 171.525 19.2287 171.287 19.4162C171.051 19.6009 170.878 19.8523 170.767 20.1705C170.656 20.4886 170.601 20.8452 170.601 21.2401C170.601 21.6378 170.656 21.9957 170.767 22.3139C170.878 22.6321 171.051 22.8849 171.287 23.0724C171.525 23.2571 171.832 23.3494 172.207 23.3494Z" fill="url(#paint1_linear_496_1757)"/>
<defs>
<linearGradient id="paint0_linear_496_1757" x1="108.211" y1="-16.0271" x2="94.602" y2="55.388" gradientUnits="userSpaceOnUse">
<stop stop-color="#33D2FF"/>
<stop offset="0.537474" stop-color="#3D68DE"/>
<stop offset="1" stop-color="#9845E8"/>
</linearGradient>
<linearGradient id="paint1_linear_496_1757" x1="108.272" y1="6.48985" x2="105.129" y2="33.8824" gradientUnits="userSpaceOnUse">
<stop stop-color="#33D2FF"/>
<stop offset="0.537474" stop-color="#3D68DE"/>
<stop offset="1" stop-color="#9845E8"/>
</linearGradient>
</defs>
</svg>
