<svg width="60" height="60" viewBox="0 0 60 60" fill="none" xmlns="http://www.w3.org/2000/svg">
<path fill-rule="evenodd" clip-rule="evenodd" d="M35 50C35 52.7615 32.7615 55 30 55C27.2385 55 25 52.7615 25 50C25 48.5067 25.6548 47.1662 26.6928 46.25H25.625C23.2087 46.25 21.25 44.2912 21.25 41.875C21.25 40.3882 21.9916 39.0747 23.125 38.2842V15H20C17.643 15 16.4645 15 15.7322 14.2678C15 13.5355 15 12.357 15 10C15 7.64297 15 6.46448 15.7322 5.73223C16.4645 5 17.643 5 20 5H40C42.357 5 43.5355 5 44.2677 5.73223C45 6.46448 45 7.64297 45 10C45 12.357 45 13.5355 44.2677 14.2678C43.5355 15 42.357 15 40 15H36.875V38.2842C38.0085 39.0747 38.75 40.3882 38.75 41.875C38.75 44.2912 36.7913 46.25 34.375 46.25H33.3072C34.3452 47.1662 35 48.5067 35 50ZM33.125 15H26.875V37.5H33.125V15Z" fill="#939393"/>
<path fill-rule="evenodd" clip-rule="evenodd" d="M18.1814 19.5457C18.4326 18.5411 19.4506 17.9303 20.4552 18.1814L40.4552 23.1814C41.4598 23.4326 42.0705 24.4506 41.8195 25.4553C41.5683 26.4598 40.5503 27.0705 39.5457 26.8195L19.5457 21.8195C18.5411 21.5683 17.9303 20.5503 18.1814 19.5457ZM18.1814 28.2958C18.4326 27.291 19.4506 26.6803 20.4552 26.9315L40.4552 31.9315C41.4598 32.1825 42.0705 33.2005 41.8195 34.2052C41.5683 35.2098 40.5503 35.8205 39.5457 35.5695L19.5457 30.5695C18.5411 30.3183 17.9303 29.3003 18.1814 28.2958Z" fill="#939393"/>
<path fill-rule="evenodd" clip-rule="evenodd" d="M50.7785 18.6809C51.507 19.4169 51.501 20.604 50.765 21.3326L48.9972 23.0825C48.2612 23.811 47.0742 23.8049 46.3457 23.069C45.6172 22.3331 45.6232 21.1459 46.3592 20.4174L48.127 18.6675C48.8627 17.939 50.05 17.945 50.7785 18.6809ZM9.22147 18.6809C9.94997 17.945 11.1371 17.939 11.8731 18.6675L13.6408 20.4174C14.3768 21.1459 14.3828 22.3331 13.6543 23.069C12.9258 23.8049 11.7386 23.811 11.0027 23.0825L9.23492 21.3326C8.499 20.604 8.49297 19.4169 9.22147 18.6809ZM55 30.6238H50C48.9645 30.6238 48.125 29.7843 48.125 28.7488C48.125 27.7133 48.9645 26.8738 50 26.8738H55C56.0355 26.8738 56.875 27.7133 56.875 28.7488C56.875 29.7843 56.0355 30.6238 55 30.6238ZM3.125 28.7513C3.125 27.7158 3.96447 26.8763 5 26.8763H10C11.0355 26.8763 11.875 27.7158 11.875 28.7513C11.875 29.7868 11.0355 30.6263 10 30.6263H5C3.96447 30.6263 3.125 29.7868 3.125 28.7513ZM13.6543 34.431C14.3828 35.167 14.3768 36.354 13.6408 37.0828L11.8731 38.8325C11.1371 39.561 9.94997 39.555 9.22147 38.819C8.49297 38.0833 8.499 36.896 9.23492 36.1675L11.0027 34.4175C11.7386 33.689 12.9258 33.695 13.6543 34.431ZM46.3457 34.431C47.0742 33.695 48.2612 33.689 48.9972 34.4175L50.765 36.1675C51.501 36.896 51.507 38.0833 50.7785 38.819C50.05 39.555 48.8627 39.561 48.127 38.8325L46.3592 37.0828C45.6232 36.3543 45.6172 35.167 46.3457 34.431Z" fill="#939393"/>
</svg>
