<svg width="12" height="12" viewBox="0 0 12 12" fill="none" xmlns="http://www.w3.org/2000/svg">
<path fill-rule="evenodd" clip-rule="evenodd" d="M12 6C12 9.31368 9.31368 12 6 12C2.68629 12 0 9.31368 0 6C0 2.68629 2.68629 0 6 0C9.31368 0 12 2.68629 12 6ZM6 9.45C6.24852 9.45 6.45 9.24852 6.45 9V5.4C6.45 5.15148 6.24852 4.95 6 4.95C5.75148 4.95 5.55 5.15148 5.55 5.4V9C5.55 9.24852 5.75148 9.45 6 9.45ZM6 3C6.33138 3 6.6 3.26863 6.6 3.6C6.6 3.93137 6.33138 4.2 6 4.2C5.66862 4.2 5.4 3.93137 5.4 3.6C5.4 3.26863 5.66862 3 6 3Z" fill="#939393"/>
</svg>
