<svg width="15" height="15" viewBox="0 0 15 15" fill="none" xmlns="http://www.w3.org/2000/svg">
<path fill-rule="evenodd" clip-rule="evenodd" d="M15 7.5C15 11.6421 11.6421 15 7.5 15C3.35786 15 0 11.6421 0 7.5C0 3.35786 3.35786 0 7.5 0C11.6421 0 15 3.35786 15 7.5ZM7.5 4.3125C7.03403 4.3125 6.65625 4.69026 6.65625 5.15625C6.65625 5.46691 6.4044 5.71875 6.09375 5.71875C5.78309 5.71875 5.53125 5.46691 5.53125 5.15625C5.53125 4.06894 6.41272 3.1875 7.5 3.1875C8.58727 3.1875 9.46875 4.06894 9.46875 5.15625C9.46875 5.68938 9.25613 6.174 8.91225 6.528C8.84303 6.59918 8.77703 6.66518 8.71403 6.7281C8.55217 6.8898 8.41035 7.03148 8.28592 7.19137C8.12168 7.40242 8.0625 7.5576 8.0625 7.6875V8.25C8.0625 8.56065 7.81065 8.8125 7.5 8.8125C7.18935 8.8125 6.9375 8.56065 6.9375 8.25V7.6875C6.9375 7.1961 7.16625 6.7983 7.39815 6.5004C7.56967 6.27997 7.7853 6.06473 7.96035 5.8901C8.01315 5.83741 8.0622 5.78842 8.10525 5.74408C8.25345 5.59157 8.34375 5.38503 8.34375 5.15625C8.34375 4.69026 7.96597 4.3125 7.5 4.3125ZM7.5 11.25C7.91423 11.25 8.25 10.9142 8.25 10.5C8.25 10.0858 7.91423 9.75 7.5 9.75C7.08577 9.75 6.75 10.0858 6.75 10.5C6.75 10.9142 7.08577 11.25 7.5 11.25Z" fill="#939393"/>
</svg>
