<svg width="42" height="38" viewBox="0 0 42 38" fill="none" xmlns="http://www.w3.org/2000/svg">
<path fill-rule="evenodd" clip-rule="evenodd" d="M16.3705 37.75H25.6297C32.132 37.75 35.383 37.75 37.7184 36.2179C38.7292 35.5546 39.5974 34.7023 40.273 33.7098C41.8334 31.4169 41.8334 28.2248 41.8334 21.8408C41.8334 15.4571 41.8334 12.265 40.273 9.97208C39.5974 8.97946 38.7292 8.12717 37.7184 7.46392C36.2176 6.47944 34.339 6.12756 31.4626 6.00179C30.0899 6.00179 28.9082 4.98058 28.639 3.65908C28.2351 1.67685 26.4624 0.25 24.4036 0.25H17.5965C15.5377 0.25 13.765 1.67685 13.3612 3.65908C13.092 4.98058 11.9102 6.00179 10.5376 6.00179C7.66119 6.12756 5.78248 6.47944 4.28183 7.46392C3.27081 8.12717 2.40275 8.97946 1.72721 9.97208C0.166748 12.265 0.166748 15.4571 0.166748 21.8408C0.166748 28.2248 0.166748 31.4169 1.72721 33.7098C2.40275 34.7023 3.27081 35.5546 4.28183 36.2179C6.61725 37.75 9.86831 37.75 16.3705 37.75ZM21.0001 13.3182C16.2059 13.3182 12.3195 17.134 12.3195 21.8408C12.3195 26.5479 16.2059 30.3635 21.0001 30.3635C25.7942 30.3635 29.6807 26.5479 29.6807 21.8408C29.6807 17.134 25.7942 13.3182 21.0001 13.3182ZM21.0001 16.7273C18.1236 16.7273 15.7917 19.0167 15.7917 21.8408C15.7917 24.665 18.1236 26.9546 21.0001 26.9546C23.8765 26.9546 26.2084 24.665 26.2084 21.8408C26.2084 19.0167 23.8765 16.7273 21.0001 16.7273ZM30.838 15.0227C30.838 14.0813 31.6153 13.3182 32.5742 13.3182H34.889C35.8478 13.3182 36.6251 14.0813 36.6251 15.0227C36.6251 15.9642 35.8478 16.7273 34.889 16.7273H32.5742C31.6153 16.7273 30.838 15.9642 30.838 15.0227Z" fill="url(#paint0_linear_994_2294)"/>
<defs>
<linearGradient id="paint0_linear_994_2294" x1="0.166748" y1="19" x2="41.8334" y2="19" gradientUnits="userSpaceOnUse">
<stop stop-color="#64FF54"/>
<stop offset="1" stop-color="#00DD89"/>
</linearGradient>
</defs>
</svg>
