<svg width="50" height="50" viewBox="0 0 50 50" fill="none" xmlns="http://www.w3.org/2000/svg">
<path d="M45.8334 27.3982V22.602C45.8334 20.0473 45.8334 18.77 45.3576 17.6214C44.882 16.4728 43.9786 15.5696 42.1722 13.7632L40.3095 11.9004L11.9001 40.3093L13.7632 42.1722C15.5696 43.9786 16.4728 44.882 17.6214 45.3576C18.77 45.8334 20.0473 45.8334 22.602 45.8334H27.3982C29.9528 45.8334 31.2303 45.8334 32.3788 45.3576C33.5274 44.882 34.4305 43.9786 36.237 42.1722L42.1722 36.237C43.9786 34.4305 44.882 33.5274 45.3576 32.3788C45.8334 31.2303 45.8334 29.9528 45.8334 27.3982Z" fill="#FE3B30"/>
<path d="M9.69044 38.0992L7.82791 36.2367C6.02148 34.4303 5.11825 33.5271 4.6425 32.3786C4.16675 31.23 4.16675 29.9525 4.16675 27.398V22.6017C4.16675 20.0471 4.16675 18.7697 4.6425 17.6211C5.11825 16.4726 6.02148 15.5694 7.82791 13.7629L13.7632 7.82767C15.5696 6.02123 16.4728 5.118 17.6214 4.64225C18.77 4.1665 20.0473 4.1665 22.602 4.1665H27.3982C29.9528 4.1665 31.2303 4.1665 32.3788 4.64225C33.5274 5.118 34.4305 6.02123 36.237 7.82767L38.0997 9.69042L9.69044 38.0992Z" fill="#FE3B30"/>
</svg>
