<svg width="15" height="15" viewBox="0 0 15 15" fill="none" xmlns="http://www.w3.org/2000/svg">
<path fill-rule="evenodd" clip-rule="evenodd" d="M7.5 10C9.91625 10 11.875 8.04125 11.875 5.625C11.875 3.20876 9.91625 1.25 7.5 1.25C5.08376 1.25 3.125 3.20876 3.125 5.625C3.125 8.04125 5.08376 10 7.5 10ZM7.5 3.75C7.32244 3.75 7.20369 3.96303 6.96619 4.38907L6.90475 4.49929C6.83731 4.62036 6.80356 4.6809 6.75094 4.72084C6.69831 4.76078 6.63281 4.77561 6.50175 4.80526L6.38244 4.83226C5.92122 4.93661 5.69063 4.98878 5.63577 5.1652C5.58091 5.34162 5.73811 5.52545 6.05252 5.89311L6.13386 5.98823C6.22321 6.09271 6.26787 6.14494 6.288 6.20957C6.30806 6.27419 6.30131 6.34387 6.28781 6.48331L6.2755 6.61019C6.22798 7.10075 6.20421 7.346 6.34781 7.45506C6.4915 7.56406 6.70737 7.46469 7.13919 7.26587L7.25088 7.21444C7.37363 7.15794 7.43494 7.12969 7.5 7.12969C7.56506 7.12969 7.62637 7.15794 7.74912 7.21444L7.86081 7.26587C8.29263 7.46469 8.5085 7.56406 8.65219 7.45506C8.79581 7.346 8.772 7.10075 8.7245 6.61019L8.71219 6.48331C8.69869 6.34387 8.69194 6.27419 8.712 6.20957C8.73213 6.14494 8.77681 6.09271 8.86612 5.98824L8.9475 5.89311C9.26188 5.52545 9.41912 5.34162 9.36425 5.1652C9.30937 4.98878 9.07875 4.93661 8.61756 4.83226L8.49825 4.80526C8.36719 4.77561 8.30169 4.76078 8.24906 4.72084C8.19644 4.6809 8.16269 4.62036 8.09525 4.49929L8.03381 4.38907C7.79631 3.96303 7.67756 3.75 7.5 3.75Z" fill="url(#paint0_linear_500_1745)"/>
<path d="M2.80948 8.12158L1.87004 9.09433C1.53246 9.44383 1.36367 9.61858 1.30527 9.76658C1.17217 10.1038 1.28607 10.478 1.57586 10.6553C1.70304 10.7332 1.93242 10.7575 2.39118 10.806C2.65019 10.8334 2.77972 10.8471 2.88819 10.8886C3.13104 10.9818 3.31994 11.1773 3.40984 11.4288C3.45 11.5411 3.46323 11.6752 3.48969 11.9434C3.53655 12.4184 3.55998 12.6559 3.63517 12.7876C3.80651 13.0876 4.16782 13.2056 4.49354 13.0678C4.63648 13.0073 4.80527 12.8325 5.14284 12.483L6.69412 10.8768C5.00816 10.6202 3.58265 9.57121 2.80948 8.12158Z" fill="url(#paint1_linear_500_1745)"/>
<path d="M8.30591 10.8768L9.85722 12.483C10.1948 12.8325 10.3635 13.0073 10.5065 13.0678C10.8322 13.2056 11.1935 13.0876 11.3648 12.7876C11.44 12.6559 11.4635 12.4184 11.5103 11.9434C11.5368 11.6752 11.55 11.5411 11.5902 11.4288C11.6801 11.1773 11.869 10.9818 12.1118 10.8886C12.2203 10.8471 12.3498 10.8334 12.6088 10.806C13.0676 10.7575 13.297 10.7332 13.4242 10.6553C13.714 10.478 13.8278 10.1038 13.6948 9.76658C13.6363 9.61858 13.4676 9.44383 13.13 9.09433L12.1905 8.12158C11.4173 9.57121 9.99185 10.6202 8.30591 10.8768Z" fill="url(#paint2_linear_500_1745)"/>
<defs>
<linearGradient id="paint0_linear_500_1745" x1="7.465" y1="1.25" x2="7.465" y2="10" gradientUnits="userSpaceOnUse">
<stop stop-color="#FFC996"/>
<stop offset="1" stop-color="#4B3112"/>
</linearGradient>
<linearGradient id="paint1_linear_500_1745" x1="3.95028" y1="8.12158" x2="3.95028" y2="13.125" gradientUnits="userSpaceOnUse">
<stop stop-color="#FFC996"/>
<stop offset="1" stop-color="#4B3112"/>
</linearGradient>
<linearGradient id="paint2_linear_500_1745" x1="11.0062" y1="8.12158" x2="11.0062" y2="13.125" gradientUnits="userSpaceOnUse">
<stop stop-color="#FFC996"/>
<stop offset="1" stop-color="#4B3112"/>
</linearGradient>
</defs>
</svg>
