<svg width="15" height="15" viewBox="0 0 15 15" fill="none" xmlns="http://www.w3.org/2000/svg">
<path fill-rule="evenodd" clip-rule="evenodd" d="M8.39756 3.61457C7.838 3.30947 7.16181 3.30947 6.60231 3.61457L3.60591 5.24842C3.00343 5.57695 2.62854 6.20837 2.62854 6.89462V9.98062C2.62854 10.6669 3.00343 11.2983 3.60591 11.6268L6.60231 13.2607C7.16181 13.5657 7.838 13.5657 8.39756 13.2607L11.3939 11.6268C11.9964 11.2983 12.3713 10.6669 12.3713 9.98062V6.89462C12.3713 6.20837 11.9964 5.57695 11.3939 5.24842L8.39756 3.61457ZM7.50006 6.56262C7.3225 6.56262 7.20375 6.77562 6.96625 7.20169L6.90481 7.31194C6.83737 7.433 6.80362 7.4935 6.751 7.53344C6.69837 7.57337 6.63287 7.58825 6.50181 7.61787L6.3825 7.64487C5.92128 7.74925 5.69069 7.80137 5.63583 7.97781C5.58096 8.15425 5.73816 8.33806 6.05258 8.70575L6.13392 8.80087C6.22326 8.90531 6.26793 8.95756 6.28806 9.02219C6.30812 9.08681 6.30137 9.1565 6.28787 9.29594L6.27556 9.42281C6.22803 9.91337 6.20427 10.1586 6.34787 10.2677C6.49156 10.3767 6.70743 10.2773 7.13925 10.0785L7.25093 10.0271C7.37368 9.97056 7.435 9.94231 7.50006 9.94231C7.56512 9.94231 7.62643 9.97056 7.74918 10.0271L7.86087 10.0785C8.29268 10.2773 8.50856 10.3767 8.65225 10.2677C8.79587 10.1586 8.77206 9.91337 8.72456 9.42281L8.71225 9.29594C8.69875 9.1565 8.692 9.08681 8.71206 9.02219C8.73218 8.95756 8.77687 8.90531 8.86618 8.80087L8.94756 8.70575C9.26193 8.33806 9.41918 8.15425 9.36431 7.97781C9.30943 7.80137 9.07881 7.74925 8.61762 7.64487L8.49831 7.61787C8.36725 7.58825 8.30175 7.57337 8.24912 7.53344C8.1965 7.4935 8.16275 7.433 8.09531 7.31194L8.03387 7.20169C7.79637 6.77562 7.67762 6.56262 7.50006 6.56262Z" fill="url(#paint0_linear_500_1772)"/>
<path d="M6.875 1.25H8.125C9.3035 1.25 9.89275 1.25 10.2589 1.61612C10.625 1.98223 10.625 2.57149 10.625 3.75V3.76123L8.84631 2.79135C8.007 2.33371 6.99275 2.33371 6.15344 2.79135L4.375 3.76109V3.75C4.375 2.57149 4.375 1.98223 4.74112 1.61612C5.10723 1.25 5.69649 1.25 6.875 1.25Z" fill="url(#paint1_linear_500_1772)"/>
<defs>
<linearGradient id="paint0_linear_500_1772" x1="7.46095" y1="3.38574" x2="7.46095" y2="13.4895" gradientUnits="userSpaceOnUse">
<stop stop-color="#FFD194"/>
<stop offset="1" stop-color="#D1913C"/>
</linearGradient>
<linearGradient id="paint1_linear_500_1772" x1="7.475" y1="1.25" x2="7.475" y2="3.76123" gradientUnits="userSpaceOnUse">
<stop stop-color="#FFD194"/>
<stop offset="1" stop-color="#D1913C"/>
</linearGradient>
</defs>
</svg>
