<svg width="15" height="15" viewBox="0 0 15 15" fill="none" xmlns="http://www.w3.org/2000/svg">
<path fill-rule="evenodd" clip-rule="evenodd" d="M7.5 10C9.91625 10 11.875 8.04125 11.875 5.625C11.875 3.20876 9.91625 1.25 7.5 1.25C5.08376 1.25 3.125 3.20876 3.125 5.625C3.125 8.04125 5.08376 10 7.5 10ZM7.5 3.75C7.32244 3.75 7.20369 3.96303 6.96619 4.38907L6.90475 4.49929C6.83731 4.62036 6.80356 4.6809 6.75094 4.72084C6.69831 4.76078 6.63281 4.77561 6.50175 4.80526L6.38244 4.83226C5.92122 4.93661 5.69063 4.98878 5.63577 5.1652C5.58091 5.34162 5.73811 5.52545 6.05252 5.89311L6.13386 5.98823C6.22321 6.09271 6.26787 6.14494 6.288 6.20957C6.30806 6.27419 6.30131 6.34387 6.28781 6.48331L6.2755 6.61019C6.22798 7.10075 6.20421 7.346 6.34781 7.45506C6.4915 7.56406 6.70738 7.46469 7.13919 7.26587L7.25088 7.21444C7.37363 7.15794 7.43494 7.12969 7.5 7.12969C7.56506 7.12969 7.62637 7.15794 7.74912 7.21444L7.86081 7.26587C8.29262 7.46469 8.5085 7.56406 8.65219 7.45506C8.79581 7.346 8.772 7.10075 8.7245 6.61019L8.71219 6.48331C8.69869 6.34387 8.69194 6.27419 8.712 6.20957C8.73213 6.14494 8.77681 6.09271 8.86612 5.98824L8.9475 5.89311C9.26188 5.52545 9.41912 5.34162 9.36425 5.1652C9.30937 4.98878 9.07875 4.93661 8.61756 4.83226L8.49825 4.80526C8.36719 4.77561 8.30169 4.76078 8.24906 4.72084C8.19644 4.6809 8.16269 4.62036 8.09525 4.49929L8.03381 4.38907C7.79631 3.96303 7.67756 3.75 7.5 3.75Z" fill="url(#paint0_linear_496_1489)"/>
<path d="M4.43313 9.96338L4.1964 10.8269C3.80369 12.2593 3.60733 12.9754 3.86936 13.3676C3.96119 13.5049 4.08437 13.6153 4.22732 13.688C4.63521 13.8957 5.265 13.5676 6.52456 12.9113C6.94369 12.6929 7.15325 12.5837 7.37587 12.5599C7.45844 12.5511 7.54156 12.5511 7.62412 12.5599C7.84675 12.5837 8.05631 12.6929 8.47544 12.9113C9.735 13.5676 10.3648 13.8957 10.7727 13.688C10.9156 13.6153 11.0388 13.5049 11.1306 13.3676C11.3927 12.9754 11.1963 12.2593 10.8036 10.8269L10.5669 9.96338C9.7005 10.5769 8.64237 10.9375 7.5 10.9375C6.35762 10.9375 5.29947 10.5769 4.43313 9.96338Z" fill="url(#paint1_linear_496_1489)"/>
<defs>
<linearGradient id="paint0_linear_496_1489" x1="-1.25" y1="5.625" x2="7.5" y2="14.375" gradientUnits="userSpaceOnUse">
<stop stop-color="#80F1A6"/>
<stop offset="1" stop-color="#EFD000"/>
</linearGradient>
<linearGradient id="paint1_linear_496_1489" x1="-9.53674e-07" y1="11.8567" x2="3.0469" y2="17.8916" gradientUnits="userSpaceOnUse">
<stop stop-color="#80F1A6"/>
<stop offset="1" stop-color="#EFD000"/>
</linearGradient>
</defs>
</svg>
