<svg width="15" height="15" viewBox="0 0 15 15" fill="none" xmlns="http://www.w3.org/2000/svg">
<path fill-rule="evenodd" clip-rule="evenodd" d="M7.5 13.75C10.2614 13.75 12.5 11.5114 12.5 8.75C12.5 5.98857 10.2614 3.75 7.5 3.75C4.73857 3.75 2.5 5.98857 2.5 8.75C2.5 11.5114 4.73857 13.75 7.5 13.75ZM7.5 6.875C7.32244 6.875 7.20369 7.088 6.96619 7.51406L6.90475 7.62431C6.83731 7.74538 6.80356 7.80587 6.75094 7.84581C6.69831 7.88575 6.63281 7.90063 6.50175 7.93025L6.38244 7.95725C5.92122 8.06163 5.69063 8.11375 5.63577 8.29019C5.58091 8.46663 5.73811 8.65044 6.05252 9.01813L6.13386 9.11325C6.22321 9.21769 6.26787 9.26994 6.288 9.33456C6.30806 9.39919 6.30131 9.46887 6.28781 9.60831L6.2755 9.73519C6.22798 10.2257 6.20421 10.471 6.34781 10.5801C6.4915 10.6891 6.70738 10.5897 7.13919 10.3909L7.25088 10.3394C7.37363 10.2829 7.43494 10.2547 7.5 10.2547C7.56506 10.2547 7.62637 10.2829 7.74912 10.3394L7.86081 10.3909C8.29262 10.5897 8.5085 10.6891 8.65219 10.5801C8.79581 10.471 8.772 10.2257 8.7245 9.73519L8.71219 9.60831C8.69869 9.46887 8.69194 9.39919 8.712 9.33456C8.73213 9.26994 8.77681 9.21769 8.86612 9.11325L8.9475 9.01813C9.26188 8.65044 9.41912 8.46663 9.36425 8.29019C9.30937 8.11375 9.07875 8.06163 8.61756 7.95725L8.49825 7.93025C8.36719 7.90063 8.30169 7.88575 8.24906 7.84581C8.19644 7.80587 8.16269 7.74538 8.09525 7.62431L8.03381 7.51406C7.79631 7.088 7.67756 6.875 7.5 6.875Z" fill="url(#paint0_linear_500_1759)"/>
<path d="M6.875 1.25H8.125C9.3035 1.25 9.89275 1.25 10.2589 1.61612C10.6198 1.97706 10.6249 2.5549 10.625 3.70045C9.71731 3.13752 8.64662 2.8125 7.5 2.8125C6.35337 2.8125 5.28269 3.13752 4.375 3.70045C4.37507 2.5549 4.38017 1.97706 4.74111 1.61612C5.10723 1.25 5.69649 1.25 6.875 1.25Z" fill="url(#paint1_linear_500_1759)"/>
<defs>
<linearGradient id="paint0_linear_500_1759" x1="7.46" y1="3.75" x2="7.46" y2="13.75" gradientUnits="userSpaceOnUse">
<stop stop-color="#EEF2F3"/>
<stop offset="1" stop-color="#8E9EAB"/>
</linearGradient>
<linearGradient id="paint1_linear_500_1759" x1="7.475" y1="1.25" x2="7.475" y2="3.70045" gradientUnits="userSpaceOnUse">
<stop stop-color="#EEF2F3"/>
<stop offset="1" stop-color="#8E9EAB"/>
</linearGradient>
</defs>
</svg>
