<svg width="40" height="40" viewBox="0 0 40 40" fill="none" xmlns="http://www.w3.org/2000/svg">
<g clip-path="url(#clip0_500_1724)">
<rect width="40" height="40" rx="16" fill="#C5C6CC"/>
<path d="M19.9997 7.8335C14.978 7.8335 10.8955 11.916 10.8955 16.9377C10.8955 21.8635 14.748 25.8502 19.7697 26.0227C19.923 26.0035 20.0763 26.0035 20.1913 26.0227C20.2297 26.0227 20.2488 26.0227 20.2872 26.0227C20.3063 26.0227 20.3063 26.0227 20.3255 26.0227C25.2322 25.8502 29.0847 21.8635 29.1038 16.9377C29.1038 11.916 25.0213 7.8335 19.9997 7.8335Z" fill="white"/>
<path d="M29.7387 31.1186C24.3912 27.5536 15.6705 27.5536 10.2846 31.1186C7.85046 32.7477 6.50879 34.9519 6.50879 37.3094C6.50879 39.6669 7.85046 41.8519 10.2655 43.4619C12.9488 45.2636 16.4754 46.1644 20.002 46.1644C23.5287 46.1644 27.0554 45.2636 29.7387 43.4619C32.1537 41.8327 33.4954 39.6477 33.4954 37.2711C33.4762 34.9136 32.1537 32.7286 29.7387 31.1186Z" fill="white"/>
<rect x="0.5" y="0.5" width="39" height="39" rx="15.5" stroke="#C5C6CC"/>
</g>
<defs>
<clipPath id="clip0_500_1724">
<rect width="40" height="40" rx="16" fill="white"/>
</clipPath>
</defs>
</svg>
