<svg width="10" height="11" viewBox="0 0 10 11" fill="none" xmlns="http://www.w3.org/2000/svg">
<path fill-rule="evenodd" clip-rule="evenodd" d="M8.66152 7.9241L7.924 8.63015C7.76439 8.78115 7.50972 8.66801 7.50972 8.44851V1.00027C7.50972 0.724275 7.27756 0.50027 7.00137 0.50027H7.00537C6.72918 0.50027 6.50903 0.724275 6.50903 1.00027V8.44094C6.50903 8.66144 6.23585 8.77412 6.07724 8.62112L5.34574 7.91897C5.1466 7.72898 4.82789 7.73749 4.63976 7.93899L4.63725 7.93997C4.45113 8.13896 4.46063 8.45146 4.65877 8.63845L6.3289 10.2271C6.71567 10.5926 7.3211 10.5904 7.70636 10.2234L9.34648 8.64895C9.54262 8.46196 9.55212 8.15262 9.36749 7.95413L9.36249 7.949C9.17586 7.748 8.86165 7.7371 8.66152 7.9241ZM0.637514 3.05105L0.632509 3.04617C0.447882 2.84767 0.457386 2.53809 0.65352 2.3511L2.29364 0.776637C2.67891 0.409147 3.28432 0.40774 3.67159 0.77273L5.34174 2.3616C5.53987 2.54859 5.54988 2.8606 5.36376 3.0596L5.36225 3.06106C5.17412 3.26256 4.8574 3.27109 4.65827 3.08059L3.93128 2.37918C3.77217 2.22618 3.50697 2.33861 3.50697 2.55911V10C3.50697 10.276 3.28333 10.5 3.00664 10.5C2.73045 10.5 2.50629 10.276 2.50629 10V2.55178C2.50629 2.33229 2.24361 2.21915 2.084 2.37014L1.33849 3.0762C1.13835 3.2632 0.824141 3.25205 0.637514 3.05105Z" fill="#939393"/>
</svg>
