<svg width="25" height="25" viewBox="0 0 25 25" fill="none" xmlns="http://www.w3.org/2000/svg">
<path d="M16.1458 7.81234C16.1458 9.82588 14.5135 11.4582 12.5 11.4582C10.4864 11.4582 8.85413 9.82588 8.85413 7.81234C8.85413 5.7988 10.4864 4.1665 12.5 4.1665C14.5135 4.1665 16.1458 5.7988 16.1458 7.81234Z" fill="url(#paint0_linear_496_1822)"/>
<path d="M18.75 17.1873C18.75 19.2009 15.9518 20.8332 12.5 20.8332C9.04822 20.8332 6.25 19.2009 6.25 17.1873C6.25 15.1738 9.04822 13.5415 12.5 13.5415C15.9518 13.5415 18.75 15.1738 18.75 17.1873Z" fill="url(#paint1_linear_496_1822)"/>
<path d="M7.41884 5.2085C7.60369 5.2085 7.78416 5.22663 7.95842 5.26116C7.53388 6.01523 7.2917 6.88566 7.2917 7.81266C7.2917 8.71709 7.52223 9.56768 7.92773 10.3089C7.763 10.3396 7.59287 10.3556 7.41884 10.3556C5.94548 10.3556 4.7511 9.20341 4.7511 7.78207C4.7511 6.36073 5.94548 5.2085 7.41884 5.2085Z" fill="url(#paint2_linear_496_1822)"/>
<path d="M5.67435 19.7769C5.08277 19.0698 4.68754 18.2019 4.68754 17.1874C4.68754 16.2038 5.05897 15.3582 5.62064 14.6631C3.6366 14.817 2.08337 15.9021 2.08337 17.218C2.08337 18.5461 3.66389 19.6392 5.67435 19.7769Z" fill="url(#paint3_linear_496_1822)"/>
<path d="M17.7082 7.81266C17.7082 8.71709 17.4776 9.56768 17.0721 10.3089C17.2369 10.3396 17.407 10.3556 17.5811 10.3556C19.0544 10.3556 20.2488 9.20341 20.2488 7.78207C20.2488 6.36073 19.0544 5.2085 17.5811 5.2085C17.3962 5.2085 17.2158 5.22663 17.0415 5.26116C17.466 6.01523 17.7082 6.88566 17.7082 7.81266Z" fill="url(#paint4_linear_496_1822)"/>
<path d="M19.3257 19.7769C21.3361 19.6392 22.9166 18.5461 22.9166 17.218C22.9166 15.9021 21.3634 14.817 19.3793 14.6631C19.941 15.3582 20.3125 16.2038 20.3125 17.1874C20.3125 18.2019 19.9172 19.0698 19.3257 19.7769Z" fill="url(#paint5_linear_496_1822)"/>
<defs>
<linearGradient id="paint0_linear_496_1822" x1="12.4946" y1="1.2449" x2="5.75245" y2="7.77431" gradientUnits="userSpaceOnUse">
<stop stop-color="#33D2FF"/>
<stop offset="0.537474" stop-color="#3D68DE"/>
<stop offset="1" stop-color="#9845E8"/>
</linearGradient>
<linearGradient id="paint1_linear_496_1822" x1="12.4907" y1="10.6199" x2="6.52791" y2="20.5194" gradientUnits="userSpaceOnUse">
<stop stop-color="#33D2FF"/>
<stop offset="0.537474" stop-color="#3D68DE"/>
<stop offset="1" stop-color="#9845E8"/>
</linearGradient>
<linearGradient id="paint2_linear_496_1822" x1="6.35238" y1="3.14615" x2="2.13956" y2="5.68846" gradientUnits="userSpaceOnUse">
<stop stop-color="#33D2FF"/>
<stop offset="0.537474" stop-color="#3D68DE"/>
<stop offset="1" stop-color="#9845E8"/>
</linearGradient>
<linearGradient id="paint3_linear_496_1822" x1="3.8762" y1="12.6141" x2="-0.523519" y2="15.6061" gradientUnits="userSpaceOnUse">
<stop stop-color="#33D2FF"/>
<stop offset="0.537474" stop-color="#3D68DE"/>
<stop offset="1" stop-color="#9845E8"/>
</linearGradient>
<linearGradient id="paint4_linear_496_1822" x1="18.6428" y1="3.14615" x2="14.43" y2="5.68842" gradientUnits="userSpaceOnUse">
<stop stop-color="#33D2FF"/>
<stop offset="0.537474" stop-color="#3D68DE"/>
<stop offset="1" stop-color="#9845E8"/>
</linearGradient>
<linearGradient id="paint5_linear_496_1822" x1="21.1185" y1="12.6141" x2="16.7188" y2="15.6061" gradientUnits="userSpaceOnUse">
<stop stop-color="#33D2FF"/>
<stop offset="0.537474" stop-color="#3D68DE"/>
<stop offset="1" stop-color="#9845E8"/>
</linearGradient>
</defs>
</svg>
