<svg width="15" height="15" viewBox="0 0 15 15" fill="none" xmlns="http://www.w3.org/2000/svg">
<path fill-rule="evenodd" clip-rule="evenodd" d="M7.5 13.75C10.9517 13.75 13.75 10.9517 13.75 7.5C13.75 4.04822 10.9517 1.25 7.5 1.25C4.04822 1.25 1.25 4.04822 1.25 7.5C1.25 10.9517 4.04822 13.75 7.5 13.75ZM6.09375 5.625C6.09375 5.36612 6.30362 5.15625 6.5625 5.15625H9.375C9.63387 5.15625 9.84375 5.36612 9.84375 5.625V8.4375C9.84375 8.69637 9.63387 8.90625 9.375 8.90625C9.11612 8.90625 8.90625 8.69637 8.90625 8.4375V6.75669L5.95646 9.70644C5.7734 9.8895 5.4766 9.8895 5.29354 9.70644C5.11049 9.52337 5.11049 9.22662 5.29354 9.04356L8.24331 6.09375H6.5625C6.30362 6.09375 6.09375 5.88388 6.09375 5.625Z" fill="url(#paint0_linear_496_1581)"/>
<defs>
<linearGradient id="paint0_linear_496_1581" x1="7.49073" y1="-3.75846" x2="-4.06715" y2="7.43481" gradientUnits="userSpaceOnUse">
<stop stop-color="#33D2FF"/>
<stop offset="0.537474" stop-color="#3D68DE"/>
<stop offset="1" stop-color="#9845E8"/>
</linearGradient>
</defs>
</svg>
