<svg width="15" height="15" viewBox="0 0 15 15" fill="none" xmlns="http://www.w3.org/2000/svg">
<path d="M11.4111 2.19292C11.5862 2.26548 11.7004 2.4364 11.7004 2.62599V5.27764C11.7004 5.53652 11.4906 5.74639 11.2317 5.74639H8.58C8.39044 5.74639 8.2195 5.63218 8.14694 5.45703C8.07444 5.28186 8.1145 5.08024 8.24856 4.94618L9.25044 3.94431C7.60462 3.25594 5.63504 3.58206 4.29592 4.92117C2.52635 6.69074 2.52635 9.55974 4.29592 11.3293C6.06549 13.0989 8.9345 13.0989 10.7041 11.3293C11.7329 10.3004 12.1639 8.90031 11.9959 7.55881C11.9637 7.30193 12.1459 7.06762 12.4028 7.03543C12.6597 7.00331 12.894 7.18543 12.9262 7.44231C13.1286 9.05862 12.6091 10.7501 11.367 11.9922C9.23131 14.1279 5.76869 14.1279 3.63301 11.9922C1.49733 9.85656 1.49733 6.39393 3.63301 4.25826C5.34449 2.54677 7.90719 2.20724 9.95681 3.23792L10.9002 2.29453C11.0343 2.16048 11.2359 2.12037 11.4111 2.19292Z" fill="#939393"/>
</svg>
